<svg xmlns="http://www.w3.org/2000/svg" width="196" height="84" viewBox="0 0 196 84">
    <defs>
        <linearGradient id="kumyjp7fga" x1="70.558%" x2="50%" y1="-15.671%" y2="119.817%">
            <stop offset="0%" stop-color="#18A154"/>
            <stop offset="100%" stop-color="#0B0412"/>
        </linearGradient>
    </defs>
    <g fill="none" fill-rule="evenodd">
        <g>
            <g>
                <path fill="#D3ECDD" d="M8 18.805h47c4.418 0 8 3.581 8 8v48c0 4.418-3.582 8-8 8H8c-4.418 0-8-3.582-8-8v-48c0-4.419 3.582-8 8-8z" transform="translate(-322 -75) translate(322 75.195)"/>
                <path fill="#0B0412" fill-rule="nonzero" d="M83.91 75.485c13.94 0 24.82-9.35 24.82-24.395S98.02 26.695 84.08 26.695c-13.855 0-24.65 9.35-24.65 24.395s10.54 24.395 24.48 24.395zm0-12.58c-5.27 0-9.69-3.825-9.69-11.815 0-8.075 4.59-11.815 9.86-11.815 5.1 0 9.86 3.74 9.86 11.815 0 7.99-4.845 11.815-10.03 11.815zm58.99 11.9V62.48h-5.185c-3.23 0-4.42-1.19-4.42-3.995v-19.04h9.52v-12.07h-9.52v-11.56H118.76v11.56h-5.78v12.07h5.78v18.87c0 12.325 6.885 16.49 16.745 16.49h7.395zm29.155.68c11.815 0 20.23-7.14 22.525-16.405h-15.47c-1.19 2.55-3.485 4.59-7.565 4.59-4.675 0-8.5-2.89-9.01-9.095h32.895c.17-1.445.255-2.89.255-4.25 0-14.45-9.775-23.63-23.63-23.63-14.11 0-23.97 9.35-23.97 24.395s10.03 24.395 23.97 24.395zM180.81 46.5h-18.19c.85-5.27 4.505-8.16 9.265-8.16 4.845 0 8.925 2.975 8.925 8.16z" transform="translate(-322 -75) translate(322 75.195)"/>
                <path fill="url(#kumyjp7fga)" fill-rule="nonzero" d="M40.12 74.805L67.717 0 52.332 0 31.025 60.185 16.235 15.135 0.765 15.135 21.93 74.805z" transform="translate(-322 -75) translate(322 75.195)"/>
            </g>
        </g>
    </g>
</svg>
