<svg width="37" height="37" xmlns="http://www.w3.org/2000/svg">
    <defs>
        <linearGradient x1="81.263%" y1="18.632%" x2="18.87%" y2="81.232%" id="b">
            <stop stop-color="#B6509E" offset="0%"/>
            <stop stop-color="#2EBAC6" offset="100%"/>
        </linearGradient>
        <linearGradient x1="81.97%" y1="20.168%" x2="17.796%" y2="80.99%" id="a">
            <stop stop-color="#B6509E" offset="0%"/>
            <stop stop-color="#2EBAC6" offset="100%"/>
        </linearGradient>
    </defs>
    <g fill-rule="nonzero" fill="none">
        <circle fill="#E5E7EC" cx="18.5" cy="18.5" r="18.5"/>
        <path d="M26.596 25.871 20.34 10.747c-.352-.782-.877-1.163-1.568-1.163h-.553c-.692 0-1.216.381-1.569 1.163l-2.723 6.59h-2.06c-.614.004-1.115.5-1.12 1.12v.014a1.132 1.132 0 0 0 1.12 1.12h1.107l-2.599 6.28a1.312 1.312 0 0 0-.076.43c0 .352.11.629.305.843.196.215.477.32.83.32a1.11 1.11 0 0 0 .643-.215c.2-.138.339-.338.449-.567l2.86-7.095h1.984a1.128 1.128 0 0 0 1.12-1.12v-.029a1.132 1.132 0 0 0-1.12-1.12h-1.059l2.184-5.44 5.95 14.8c.11.228.249.428.449.567.186.138.415.21.644.214.352 0 .629-.105.83-.32.2-.214.304-.49.304-.843a1 1 0 0 0-.076-.425z" stroke="url(#a)" stroke-width="1.057" fill="url(#b)"/>
    </g>
</svg>
