<svg xmlns="http://www.w3.org/2000/svg" focusable="false" viewBox="0 0 32 32" aria-hidden="true"><defs><linearGradient id="paint0_linear_359" x1="80" x2="80" y1="-84" y2="256" gradientTransform="matrix(0.177778, 0, 0, 0.177778, 1.777779, 1.777779)" gradientUnits="userSpaceOnUse"><stop stop-color="#708B96" offset="0.1949"></stop><stop stop-color="#F7FBE7" offset="1"></stop></linearGradient></defs><path d="M 1.778 16 C 1.778 8.145 8.145 1.778 16 1.778 C 23.855 1.778 30.222 8.145 30.222 16 C 30.222 23.855 23.855 30.222 16 30.222 C 8.145 30.222 1.778 23.855 1.778 16 Z" fill="#fff"></path><rect x="9.742" y="9.771" width="12.516" height="12.516" fill="#fff"></rect><path d="M 14.635 22.286 L 14.635 19.916 C 12.852 19.355 11.563 17.725 11.563 15.801 C 11.563 13.413 13.549 11.477 16 11.477 C 18.451 11.477 20.437 13.413 20.437 15.801 C 20.437 17.725 19.148 19.355 17.365 19.916 L 17.365 21.658 L 17.365 22.258 L 17.365 22.286 L 22.258 22.286 L 22.258 20.523 L 19.842 20.523 C 21.295 19.421 22.229 17.709 22.229 15.787 C 22.229 12.464 19.44 9.771 16 9.771 C 12.56 9.771 9.771 12.464 9.771 15.787 C 9.771 17.709 10.705 19.421 12.158 20.523 L 9.742 20.523 L 9.742 22.286 Z" clip-rule="evenodd" fill="#708b96" fill-rule="evenodd"></path><path d="M 16 28.444 C 9.127 28.444 3.556 22.873 3.556 16 L 0 16 C 0 24.837 7.163 32 16 32 Z M 28.444 16 C 28.444 22.873 22.873 28.444 16 28.444 L 16 32 C 24.837 32 32 24.837 32 16 Z M 16 3.556 C 22.873 3.556 28.444 9.127 28.444 16 L 32 16 C 32 7.163 24.837 0 16 0 Z M 16 0 C 7.163 0 0 7.163 0 16 L 3.556 16 C 3.556 9.127 9.127 3.556 16 3.556 Z" fill="url(#paint0_linear_359)"></path></svg>