<svg width="37" height="37" xmlns="http://www.w3.org/2000/svg">
    <defs>
        <linearGradient x1="35.535%" y1="8.135%" x2="51.434%" y2="54.023%" id="a">
            <stop stop-color="#03B8FF" offset="0%"/>
            <stop stop-color="#FA52A0" offset="100%"/>
        </linearGradient>
        <linearGradient x1="36.509%" y1="13.445%" x2="55.516%" y2="64.661%" id="b">
            <stop stop-color="#03B8FF" offset="0%"/>
            <stop stop-color="#FA52A0" offset="100%"/>
        </linearGradient>
        <linearGradient x1="28.725%" y1="-7.035%" x2="47.793%" y2="44.849%" id="c">
            <stop stop-color="#03B8FF" offset="0%"/>
            <stop stop-color="#FA52A0" offset="100%"/>
        </linearGradient>
    </defs>
    <g fill="none" fill-rule="evenodd">
        <path d="M0 18.5C0 8.283 8.283 0 18.5 0S37 8.283 37 18.5 28.717 37 18.5 37 0 28.717 0 18.5z" fill="#FEE1EF" fill-rule="nonzero"/>
        <path fill="url(#a)" fill-rule="nonzero" d="M12.157 8.637 29.854 20.72l-4.377 6.47L7.781 15.01z"/>
        <path d="M29.854 20.72c-1.523 2.188-6.66 1.332-11.513-2.093-4.947-3.33-7.611-7.802-6.184-9.99 1.522-2.188 6.66-1.332 11.512 2.093 4.948 3.235 7.612 7.802 6.185 9.99z" fill="url(#b)" fill-rule="nonzero"/>
        <path d="M25.477 27.095c-1.522 2.188-6.66 1.332-11.512-2.094-4.852-3.425-7.612-7.801-6.09-10.085 1.523-2.188 6.66-1.332 11.513 2.093 4.852 3.426 7.516 7.897 6.09 10.086z" fill="url(#c)" fill-rule="nonzero"/>
        <path d="m29.854 20.72-4.377 6.47c-1.522 2.188-6.66 1.237-11.512-2.093a28.664 28.664 0 0 1-2.664-2.094c.666-.095 1.522-.475 2.378-1.427 1.523-1.617 2.284-1.998 2.95-1.903.666 0 1.427.666 2.664 2.284 1.237 1.617 2.95 2.093 3.996 1.237.095-.095.19-.095.285-.19.857-.667 1.142-.952 2.76-3.997.38-.76 1.712-1.998 3.52-1.427.475 1.237.475 2.284 0 3.14z" fill="#0E0F23" fill-rule="nonzero"/>
        <path d="M29.188 20.34c-1.332 1.902-5.994.95-10.466-2.189-4.567-3.14-7.23-7.136-5.899-9.038C14.155 7.21 18.817 8.16 23.29 11.3c4.472 3.14 7.136 7.136 5.899 9.038zM25 17.484c-.666.952-2.949.476-5.232-1.046-2.189-1.523-3.52-3.52-2.855-4.472.666-.952 2.95-.476 5.233 1.046 2.188 1.523 3.52 3.52 2.854 4.472z" fill="#FFF"/>
        <path d="M11.777 10.825c0-.095-.096-.19-.19-.095-.096.095-.191.095-.191.19.095.286.19.476.19.666 0 .095.095.19.19.095.096 0 .19-.095.096-.19 0-.19 0-.38-.095-.666zM12.252 12.347c0-.095-.095-.19-.19-.095s-.095.095-.095.19c1.046 2.38 3.235 4.948 6.089 6.85.095.096.19 0 .285 0 .096-.094 0-.19 0-.285-2.949-1.902-5.042-4.376-6.089-6.66zM23.765 21.671c-.096 0-.19 0-.19.096 0 .095 0 .19.094.19.286.095.666.19.952.285.095 0 .19 0 .19-.095s0-.19-.095-.19c-.285-.095-.666-.19-.951-.286zM25.477 22.052a.205.205 0 0 0-.19.19c0 .095.095.19.19.19.761.096 1.618.19 2.284.096.095 0 .19-.095.19-.19a.205.205 0 0 0-.19-.19c-.762.094-1.523 0-2.284-.096z" fill="#FFF" fill-rule="nonzero"/>
    </g>
</svg>
