<svg width="37" height="37" xmlns="http://www.w3.org/2000/svg">
    <g fill-rule="nonzero" fill="none">
        <path d="M0 18.5C0 8.283 8.283 0 18.5 0S37 8.283 37 18.5 28.717 37 18.5 37 0 28.717 0 18.5z" fill="#D8E8FA"/>
        <path fill="#006AE3" d="M17.736 26.3V10.908h1.676V26.3z"/>
        <path d="m26.267 16.036-5.176 1.373-1.154-5.373 1.54-.348.606 2.546s1.398-2.294-.466-4.67c-1.099-1.22-1.62-1.272-2.853-1.465-1.084-.155-3.603.211-4.354 3.153-.318 1.894.04 3.296 2.482 5.132l-.137 2.042s-2.726-1.92-3.43-3.267c-.543-1.066-1.475-3.17.208-6.101.906-1.465 2.693-2.871 5.842-2.723 1.583.066 5.45 2.001 4.85 6.523-.104.847-.544 1.975-.544 1.975l2.124-.473.462 1.676zM23.311 28.08c-.947 1.439-2.77 2.797-5.912 2.567-1.583-.107-5.394-2.146-4.676-6.649.126-.843.596-1.957.596-1.957l-2.135.414-.418-1.683 5.213-1.236 1.013 5.402-1.55.307-.54-2.564s-1.458 2.253.34 4.68c1.066 1.251 1.584 1.314 2.816 1.54 1.076.185 3.607-.119 4.436-3.038.366-1.883.044-3.297-2.346-5.198l.193-2.039s2.674 1.99 3.34 3.356c.51 1.084 1.388 3.215-.37 6.097z" fill="#006AE3"/>
    </g>
</svg>
