<svg xmlns="http://www.w3.org/2000/svg" width="70" height="23" viewBox="0 0 70 23">
    <g fill="none" fill-rule="evenodd">
        <g fill="#FFF" fill-rule="nonzero">
            <g>
                <g>
                    <g>
                        <path d="M28.83 12.623l-4.474-11.42c-.035-.104-.054-.214-.055-.324-.009-.234.07-.461.218-.635.155-.167.372-.256.594-.243.167.003.328.06.462.162.14.11.25.258.317.428l4.256 11.172L34.404.591c.069-.17.18-.318.32-.428.135-.103.297-.16.463-.162.22-.012.436.077.59.243.15.173.23.4.223.635-.002.11-.02.22-.056.324l-4.474 11.42c-.157.514-.608.866-1.121.877h-.398c-.513-.01-.963-.363-1.12-.877zM38.035 12.368c-.156-.154-.24-.363-.235-.58V.836c-.005-.222.08-.436.235-.597.153-.159.368-.246.59-.239h7.384c.21-.005.413.08.556.23.153.142.238.34.235.546.006.204-.08.4-.235.537-.149.145-.35.224-.56.222h-6.528v3.989h5.872c.21-.005.413.078.556.23.15.143.235.34.235.545.006.204-.08.4-.235.537-.148.144-.348.223-.556.222h-5.872v4.006h6.528c.212-.006.416.078.56.23.154.143.239.342.235.55.006.204-.08.4-.235.537-.15.143-.351.221-.56.217h-7.38c-.222.016-.44-.069-.59-.23zM25.143 12.297L20.668.877C20.512.365 20.064.013 19.553 0h-.393c-.513.01-.963.363-1.12.877l-1.945 4.977H14.62c-.44.005-.796.381-.799.846v.009c.003.464.358.84.8.846h.79l-1.855 4.742c-.035.104-.054.214-.055.324-.009.233.07.461.218.634.155.168.372.257.594.243.166-.002.327-.059.461-.162.14-.11.25-.257.317-.427l2.047-5.354h1.406c.441-.005.797-.382.8-.846v-.023c-.003-.464-.359-.84-.8-.846h-.76l1.572-4.103 4.253 11.172c.067.17.177.317.316.427.135.103.296.16.462.162.224.015.442-.074.598-.243.147-.174.224-.401.214-.634.005-.11-.012-.221-.051-.324h-.005zM11.648 12.297L7.177.877C7.02.362 6.567.01 6.053 0H5.66c-.513.01-.963.363-1.12.877L2.595 5.854H1.12c-.44.005-.796.381-.799.846v.009c.003.464.358.84.8.846h.79L.056 12.297c-.035.104-.054.214-.055.324-.009.233.07.461.218.634.155.168.372.257.594.243.166-.002.327-.059.461-.162.14-.11.25-.257.317-.427l2.047-5.354h1.415c.443-.003.8-.38.803-.846v-.023c-.002-.466-.36-.843-.803-.846h-.757l1.56-4.103 4.253 11.172c.067.17.177.317.316.427.135.103.296.16.462.162.224.015.442-.074.598-.243.147-.174.224-.401.214-.634.005-.11-.012-.221-.051-.324z" transform="translate(-28 -508) translate(-15) translate(43 508) translate(23 6)"/>
                    </g>
                    <path d="M16.992 7.713C16.898 3.428 13.122 0 8.496 0S.094 3.428 0 7.713V22.125c.018.472.436.845.945.845.51 0 .927-.373.945-.845v-2.544c0-.483.423-.874.944-.874.522 0 .944.391.944.874v1.207c0 .483.423.875.945.875.521 0 .944-.392.944-.875v-1.207c0-.482.423-.874.944-.874.522 0 .944.392.945.874v.33c0 .483.422.875.944.875s.944-.392.944-.875v-.33c.018-.471.436-.845.945-.845.51 0 .927.374.945.845v1.207c0 .483.423.875.944.875.522 0 .945-.392.945-.875v-1.207c0-.482.423-.874.944-.874.521 0 .944.392.944.874v2.544c0 .483.423.875.945.875.521 0 .944-.392.944-.875V7.772c-.005-.02-.007-.04-.008-.059zm-11.63 1.26c-.835 0-1.511-.718-1.511-1.607S4.527 5.76 5.362 5.76c.835 0 1.512.718 1.512 1.606 0 .888-.675 1.606-1.512 1.606zm3.202 2.262c-.758 0-1.372-.418-1.372-.934s.614-.205 1.372-.205c.758 0 1.372-.311 1.372.205s-.614.934-1.372.934zm3.065-2.263c-.833 0-1.511-.717-1.511-1.606 0-.889.678-1.606 1.511-1.606.834 0 1.512.718 1.512 1.606 0 .888-.677 1.606-1.512 1.606z" transform="translate(-28 -508) translate(-15) translate(43 508)"/>
                </g>
            </g>
        </g>
    </g>
</svg>
