<svg xmlns="http://www.w3.org/2000/svg" width="85" height="28" viewBox="0 0 85 28">
    <g fill="none" fill-rule="evenodd">
        <g fill="#180928" fill-rule="nonzero">
            <g>
                <g>
                    <g>
                        <path d="M34.597 15.147l-5.37-13.704c-.042-.125-.064-.256-.066-.389-.01-.28.083-.553.262-.76.186-.202.446-.308.713-.292.2.003.393.07.554.194.168.132.3.31.38.513l5.108 13.407L41.285.709c.082-.204.215-.381.385-.513.161-.124.355-.191.554-.194.265-.015.523.091.708.291.18.207.276.48.267.761-.001.133-.024.264-.066.39l-5.37 13.703c-.188.617-.728 1.04-1.344 1.053h-.478c-.616-.013-1.156-.436-1.344-1.053zM45.642 14.842c-.187-.185-.289-.436-.282-.696V1.003c-.006-.266.095-.524.282-.716.183-.19.441-.295.709-.287h8.86c.252-.006.495.095.667.277.183.17.285.407.282.654.007.245-.096.48-.282.645-.179.173-.42.269-.672.266h-7.834v4.786h7.047c.252-.006.495.095.667.277.18.171.282.407.281.654.008.245-.095.48-.281.644-.178.173-.418.268-.667.266h-7.047v4.808h7.834c.254-.008.5.093.672.276.184.171.287.41.282.66.007.244-.096.48-.282.644-.18.171-.422.265-.672.26H46.35c-.267.02-.528-.082-.71-.275zM30.172 14.757l-5.37-13.704C24.614.438 24.077.015 23.463 0h-.471c-.616.013-1.156.436-1.344 1.053l-2.334 5.972h-1.77c-.529.005-.956.457-.959 1.015v.01c.003.558.43 1.01.96 1.016h.948l-2.226 5.69c-.042.125-.064.257-.066.39-.01.28.083.552.261.76.187.202.447.308.713.292.2-.003.393-.07.554-.194.168-.133.299-.31.38-.513l2.457-6.425h1.687c.53-.006.956-.458.96-1.016v-.027c-.004-.557-.43-1.009-.96-1.015h-.913l1.888-4.924 5.103 13.407c.08.203.212.38.38.513.16.123.354.191.553.194.269.018.53-.089.718-.291.177-.21.269-.483.257-.762.006-.132-.015-.265-.062-.388h-.005zM13.977 14.757L8.612 1.053C8.423.433 7.881.01 7.263 0h-.471c-.616.013-1.156.436-1.344 1.053L3.114 7.025h-1.77C.816 7.03.389 7.482.386 8.04v.01c.003.558.43 1.01.96 1.016h.948l-2.226 5.69c-.042.125-.064.257-.066.39-.01.28.083.552.261.76.187.202.447.308.713.292.2-.003.393-.07.554-.194.168-.133.299-.31.38-.513l2.457-6.425h1.697c.532-.003.962-.456.965-1.016v-.027c-.003-.559-.433-1.012-.965-1.015h-.908l1.873-4.924 5.103 13.407c.08.203.212.38.38.513.16.123.354.191.553.194.269.018.53-.089.718-.291.177-.21.269-.483.257-.762.006-.132-.015-.265-.062-.388z" transform="translate(-1009 -378) translate(487 378) translate(522) translate(27.6 7.2)"/>
                    </g>
                    <path d="M20.39 9.256C20.278 4.114 15.746 0 10.195 0S.112 4.114 0 9.256V26.55c.021.566.523 1.014 1.134 1.014.611 0 1.112-.448 1.134-1.014v-3.052c0-.58.507-1.05 1.133-1.05s1.133.47 1.133 1.05v1.448c0 .58.507 1.05 1.133 1.05s1.133-.47 1.133-1.05v-1.448c.001-.58.508-1.05 1.134-1.05.625 0 1.132.47 1.133 1.05v.395c0 .58.507 1.05 1.133 1.05s1.133-.47 1.133-1.05v-.395c.022-.566.523-1.014 1.134-1.014.611 0 1.113.448 1.134 1.014v1.448c0 .58.507 1.05 1.133 1.05s1.133-.47 1.133-1.05v-1.448c.001-.58.508-1.05 1.133-1.05.626 0 1.133.47 1.134 1.05v3.052c0 .58.507 1.05 1.133 1.05s1.133-.47 1.133-1.05V9.327c-.006-.025-.008-.048-.01-.071zm-13.955 1.51c-1.002 0-1.814-.86-1.814-1.927 0-1.066.812-1.927 1.814-1.927s1.814.862 1.814 1.927c0 1.066-.81 1.928-1.814 1.928zm3.842 2.716c-.91 0-1.647-.502-1.647-1.121 0-.62.737-.246 1.647-.246s1.646-.373 1.646.246c0 .62-.736 1.12-1.646 1.12zm3.678-2.715c-1 0-1.814-.861-1.814-1.928 0-1.066.814-1.927 1.814-1.927 1.001 0 1.815.862 1.815 1.927 0 1.066-.813 1.928-1.815 1.928z" transform="translate(-1009 -378) translate(487 378) translate(522)"/>
                </g>
            </g>
        </g>
    </g>
</svg>
