<?xml version="1.0" encoding="utf-8"?>
<!-- Generator: Adobe Illustrator 23.0.1, SVG Export Plug-In . SVG Version: 6.00 Build 0)  -->
<svg version="1.1" id="Layer_1" xmlns="http://www.w3.org/2000/svg" xmlns:xlink="http://www.w3.org/1999/xlink" x="0px" y="0px"
	 viewBox="0 0 39.3 33" style="enable-background:new 0 0 39.3 33;" xml:space="preserve">
<style type="text/css">
	.st0{filter:url(#Adobe_OpacityMaskFilter);}
	.st1{fill-rule:evenodd;clip-rule:evenodd;fill:#FFFFFF;}
	.st2{mask:url(#je5l94ndbb_1_);fill-rule:evenodd;clip-rule:evenodd;fill:#0B0412;}
	.st3{filter:url(#Adobe_OpacityMaskFilter_1_);}
	.st4{mask:url(#j21y1qx6xd_1_);fill-rule:evenodd;clip-rule:evenodd;fill:#0B0412;}
	.st5{filter:url(#Adobe_OpacityMaskFilter_2_);}
	.st6{mask:url(#i0eute7ugf_1_);fill-rule:evenodd;clip-rule:evenodd;fill:#0B0412;}
	.st7{fill-rule:evenodd;clip-rule:evenodd;fill:#0B0412;}
</style>
<g>
	<g>
		<g>
			<g transform="translate(-45 -47) translate(-15) translate(60 47)">
				<g transform="translate(0 7.995)">
					<defs>
						<filter id="Adobe_OpacityMaskFilter" filterUnits="userSpaceOnUse" x="0" y="0.1" width="17.1" height="19.2">
							<feColorMatrix  type="matrix" values="1 0 0 0 0  0 1 0 0 0  0 0 1 0 0  0 0 0 1 0"/>
						</filter>
					</defs>
					<mask maskUnits="userSpaceOnUse" x="0" y="0.1" width="17.1" height="19.2" id="je5l94ndbb_1_">
						<g class="st0">
							<path id="u93lwrmmea_1_" class="st1" d="M0,0.1h17.1v19.2H0V0.1z"/>
						</g>
					</mask>
					<path class="st2" d="M10.5,0.1L16.3,6c1,1,1,2.6,0,3.6l-9.8,9.8l-5.8-5.8c-1-1-1-2.6,0-3.6C0.7,9.9,10.5,0.1,10.5,0.1z"/>
				</g>
				<g transform="translate(11.76 .075)">
					<defs>
						<filter id="Adobe_OpacityMaskFilter_1_" filterUnits="userSpaceOnUse" x="0" y="0.2" width="15.3" height="13.2">
							<feColorMatrix  type="matrix" values="1 0 0 0 0  0 1 0 0 0  0 0 1 0 0  0 0 0 1 0"/>
						</filter>
					</defs>
					<mask maskUnits="userSpaceOnUse" x="0" y="0.2" width="15.3" height="13.2" id="j21y1qx6xd_1_">
						<g class="st3">
							<path class="st1" d="M0,0.2h15.3v13.2H0V0.2z"/>
						</g>
					</mask>
					<path class="st4" d="M0,6.7l5.8-5.8c1-1,2.6-1,3.6,0l5.8,5.8l-5.8,5.8c-1,1-2.6,1-3.6,0C5.9,12.6,0,6.7,0,6.7z"/>
				</g>
				<g transform="translate(11.76 18.075)">
					<defs>
						<filter id="Adobe_OpacityMaskFilter_2_" filterUnits="userSpaceOnUse" x="0" y="0" width="15.3" height="13.2">
							<feColorMatrix  type="matrix" values="1 0 0 0 0  0 1 0 0 0  0 0 1 0 0  0 0 0 1 0"/>
						</filter>
					</defs>
					<mask maskUnits="userSpaceOnUse" x="0" y="0" width="15.3" height="13.2" id="i0eute7ugf_1_">
						<g class="st5">
							<path class="st1" d="M0,0h15.3v13.2H0V0z"/>
						</g>
					</mask>
					<path class="st6" d="M0,6.6l5.8-5.8c1-1,2.6-1,3.6,0l5.8,5.8l-5.8,5.8c-1,1-2.6,1-3.6,0C5.9,12.5,0,6.6,0,6.6z"/>
				</g>
				<path class="st7" d="M32.7,3.8l5.8,5.8c1,1,1,2.6,0,3.6L28.4,23.4l-5.8-5.8c-1-1-1-2.6,0-3.6L32.7,3.8z"/>
			</g>
		</g>
	</g>
</g>
</svg>
