<svg xmlns="http://www.w3.org/2000/svg" xmlns:xlink="http://www.w3.org/1999/xlink" width="130" height="25" viewBox="0 0 130 25">
    <defs>
        <path id="xwsly0gdqa" d="M0 0.095L12.299 0.095 12.299 13.905 0 13.905z"/>
        <path id="dxeqjbi17c" d="M0.034 0.119L11.021 0.119 11.021 9.596 0.034 9.596z"/>
        <path id="xloyr3g3ee" d="M0.034 0.027L11.021 0.027 11.021 9.504 0.034 9.504z"/>
        <path id="3pku32vr8g" d="M0 22.518L128.657 22.518 128.657 0.173 0 0.173z"/>
    </defs>
    <g fill="none" fill-rule="evenodd">
        <g>
            <g>
                <g>
                    <g transform="translate(-1096 -490) translate(820 442) translate(38 48) translate(238.3 .6)">
                        <g transform="translate(0 5.756)">
                            <mask id="m7b7yq3sjb" fill="#fff">
                                <use xlink:href="#xwsly0gdqa"/>
                            </mask>
                            <path fill="#12C264" d="M.534 7.122L7.561.095 11.765 4.3c.712.712.712 1.866 0 2.578L4.74 13.905.534 9.7c-.712-.712-.712-1.866 0-2.578" mask="url(#m7b7yq3sjb)"/>
                        </g>
                        <g transform="translate(8.467 .054)">
                            <mask id="0uop8z218d" fill="#fff">
                                <use xlink:href="#dxeqjbi17c"/>
                            </mask>
                            <path fill="#12C264" d="M.034 4.858L4.238.653c.712-.712 1.867-.712 2.579 0l4.204 4.205-4.204 4.204c-.712.712-1.867.712-2.579 0L.034 4.858z" mask="url(#0uop8z218d)"/>
                        </g>
                        <g transform="translate(8.467 13.014)">
                            <mask id="tg7xed2aif" fill="#fff">
                                <use xlink:href="#xloyr3g3ee"/>
                            </mask>
                            <path fill="#12C264" d="M.034 4.765L4.238.561c.712-.712 1.867-.712 2.579 0l4.204 4.204L6.817 8.97c-.712.712-1.867.712-2.579 0L.034 4.765z" mask="url(#tg7xed2aif)"/>
                        </g>
                        <path fill="#12C264" d="M16.224 10.056l7.34-7.34L27.77 6.92c.712.712.712 1.866 0 2.578l-7.34 7.34-4.205-4.204c-.712-.713-.712-1.867 0-2.579"/>
                        <path fill="#0B0412" d="M39.459 15.418h2.604c1.018 0 1.762-.725 1.762-1.664 0-.94-.744-1.606-1.782-1.606H39.46v3.27zm0-5.6h1.977c.862 0 1.469-.606 1.469-1.448 0-.803-.607-1.41-1.45-1.41H39.46v2.858zm-2.956 8.203V4.376h5.423c1.096 0 2.016.333 2.76.998.764.646 1.136 1.488 1.136 2.487 0 1.311-.646 2.349-1.743 2.74 1.743.314 2.741 1.645 2.741 3.387 0 1.156-.391 2.134-1.194 2.898-.783.763-1.762 1.135-2.956 1.135h-6.167zM49.953 9.623c.861 0 1.605.724 1.605 1.585 0 .881-.744 1.606-1.605 1.606-.862 0-1.606-.725-1.606-1.606 0-.861.744-1.585 1.606-1.585M56.785 10.876h2.565c.411 0 .822-.137 1.194-.431s.568-.783.568-1.449-.196-1.135-.568-1.429c-.372-.294-.783-.45-1.194-.45h-2.565v3.759zM53.77 18.02V4.376h5.756c1.155 0 2.193.43 3.152 1.272.96.842 1.449 1.958 1.449 3.348 0 1.331-.47 2.428-1.41 3.309-.94.88-1.997 1.311-3.19 1.311h-2.742v4.405H53.77zM65.674 18.021V8.154h2.917v1.351c.45-.998 1.507-1.566 2.858-1.566.196 0 .45.02.764.059v2.74c-.294-.058-.627-.097-.98-.097-1.663 0-2.642.94-2.642 2.564v4.816h-2.917zM76.422 14.928c.49.49 1.096.744 1.82.744.725 0 1.332-.254 1.821-.744.49-.509.745-1.116.745-1.84 0-.725-.255-1.331-.745-1.82-.489-.51-1.096-.764-1.82-.764-.725 0-1.331.254-1.82.763-.49.49-.745 1.096-.745 1.82 0 .725.255 1.352.744 1.841m5.697-5.54c1.077.998 1.606 2.232 1.606 3.7s-.529 2.701-1.606 3.72c-1.077.998-2.369 1.507-3.876 1.507-1.527 0-2.82-.509-3.896-1.507-1.057-1.019-1.586-2.252-1.586-3.72 0-1.468.529-2.702 1.586-3.7 1.077-1.018 2.369-1.527 3.896-1.527 1.507 0 2.8.509 3.876 1.527M85.898 18.021L85.898 10.797 84.586 10.797 84.586 8.154 85.898 8.154 85.898 4.376 88.737 4.376 88.737 8.154 90.91 8.154 90.91 10.797 88.737 10.797 88.737 18.021zM95.021 14.928c.49.49 1.097.744 1.821.744.725 0 1.331-.254 1.82-.744.49-.509.745-1.116.745-1.84 0-.725-.255-1.331-.744-1.82-.49-.51-1.096-.764-1.82-.764-.725 0-1.332.254-1.822.763-.489.49-.744 1.096-.744 1.82 0 .725.255 1.352.744 1.841m5.698-5.54c1.076.998 1.605 2.232 1.605 3.7s-.529 2.701-1.605 3.72c-1.077.998-2.37 1.507-3.877 1.507-1.527 0-2.819-.509-3.896-1.507-1.057-1.019-1.586-2.252-1.586-3.72 0-1.468.529-2.702 1.586-3.7 1.077-1.018 2.37-1.527 3.896-1.527 1.508 0 2.8.509 3.877 1.527M111.976 8.742v2.819c-.764-.725-1.723-1.077-2.839-1.077-.803 0-1.488.235-2.017.724-.528.49-.782 1.097-.782 1.86 0 1.488 1.174 2.565 2.8 2.565 1.135 0 2.074-.352 2.838-1.057v2.8c-.783.606-1.801.9-3.074.9-1.586 0-2.897-.49-3.935-1.468-1.037-.999-1.547-2.232-1.547-3.74 0-1.507.51-2.74 1.547-3.739 1.038-.998 2.35-1.488 3.935-1.488 1.234 0 2.271.294 3.074.9M116.91 14.928c.49.49 1.096.744 1.82.744.725 0 1.332-.254 1.821-.744.49-.509.744-1.116.744-1.84 0-.725-.254-1.331-.744-1.82-.49-.51-1.096-.764-1.82-.764-.725 0-1.332.254-1.821.763-.49.49-.744 1.096-.744 1.82 0 .725.254 1.352.744 1.841m5.697-5.54c1.077.998 1.605 2.232 1.605 3.7s-.528 2.701-1.605 3.72c-1.077.998-2.369 1.507-3.876 1.507-1.528 0-2.82-.509-3.896-1.507-1.058-1.019-1.586-2.252-1.586-3.72 0-1.468.528-2.702 1.586-3.7 1.076-1.018 2.368-1.527 3.896-1.527 1.507 0 2.8.509 3.876 1.527"/>
                        <mask id="vt0mc3wdhh" fill="#fff">
                            <use xlink:href="#3pku32vr8g"/>
                        </mask>
                        <path fill="#0B0412" d="M125.74 18.021L128.657 18.021 128.657 4.376 125.74 4.376z" mask="url(#vt0mc3wdhh)"/>
                    </g>
                </g>
            </g>
        </g>
    </g>
</svg>
