<svg xmlns="http://www.w3.org/2000/svg" width="39" height="39" viewBox="0 0 39 39">
    <defs>
        <linearGradient id="9jvgp8fm4a" x1="50%" x2="50%" y1="0%" y2="100%">
            <stop offset="0%" stop-color="#FAAC1C"/>
            <stop offset="100%" stop-color="#FBC959"/>
        </linearGradient>
    </defs>
    <g fill="none" fill-rule="evenodd">
        <g>
            <g>
                <g>
                    <g fill="url(#9jvgp8fm4a)" transform="translate(-572 -211) translate(332 97) translate(240.12 114.08)">
                        <path d="M0 18.754C0 8.396 8.396 0 18.754 0 29.11 0 37.508 8.396 37.508 18.754c0 10.357-8.397 18.754-18.754 18.754C8.396 37.508 0 29.11 0 18.754z"/>
                    </g>
                    <g fill="#A16800">
                        <path d="M13.67 12.094l3.761 3.76-3.76 3.761c-.637.637-1.67.637-2.307 0l-3.76-3.76 3.76-3.761c.637-.637 1.67-.637 2.306 0zM6.763 5.186l3.76 3.76c.637.637.637 1.67 0 2.307l-6.285 6.285-3.76-3.761c-.637-.637-.637-1.67 0-2.306l6.285-6.285zM21.077 2.38l3.76 3.76c.637.638.637 1.67 0 2.307l-6.565 6.565-3.76-3.76c-.638-.637-.638-1.67 0-2.306l6.565-6.566zM13.67.584l3.761 3.76-3.76 3.762c-.637.637-1.67.637-2.307 0l-3.76-3.761 3.76-3.761c.637-.637 1.67-.637 2.306 0z" transform="translate(-572 -211) translate(332 97) translate(240.12 114.08) translate(5.88 8.92)"/>
                    </g>
                </g>
            </g>
        </g>
    </g>
</svg>
