<svg xmlns="http://www.w3.org/2000/svg" xmlns:xlink="http://www.w3.org/1999/xlink" width="179" height="33" viewBox="0 0 179 33">
    <defs>
        <path id="u93lwrmmea" d="M0 0.132L17.082 0.132 17.082 19.312 0 19.312z"/>
        <path id="2dfsjrsznc" d="M0.047 0.165L15.307 0.165 15.307 13.328 0.047 13.328z"/>
        <path id="36gzfext3e" d="M0.047 0.037L15.307 0.037 15.307 13.2 0.047 13.2z"/>
        <path id="81dqxnopeg" d="M0 31.275L178.69 31.275 178.69 0.24 0 0.24z"/>
    </defs>
    <g fill="none" fill-rule="evenodd">
        <g>
            <g>
                <g transform="translate(-45 -47) translate(-15) translate(60 47)">
                    <g transform="translate(0 7.995)">
                        <mask id="je5l94ndbb" fill="#fff">
                            <use xlink:href="#u93lwrmmea"/>
                        </mask>
                        <path fill="#25C068" d="M10.501.132l5.84 5.84c.989.989.989 2.592 0 3.581l-9.76 9.76-5.84-5.84c-.988-.99-.988-2.592 0-3.581l9.76-9.76z" mask="url(#je5l94ndbb)"/>
                    </g>
                    <g transform="translate(11.76 .075)">
                        <mask id="j21y1qx6xd" fill="#fff">
                            <use xlink:href="#2dfsjrsznc"/>
                        </mask>
                        <path fill="#25C068" d="M.047 6.747l5.84-5.84c.988-.99 2.592-.99 3.58 0l5.84 5.84-5.84 5.84c-.988.988-2.592.988-3.58 0l-5.84-5.84z" mask="url(#j21y1qx6xd)"/>
                    </g>
                    <g transform="translate(11.76 18.075)">
                        <mask id="i0eute7ugf" fill="#fff">
                            <use xlink:href="#36gzfext3e"/>
                        </mask>
                        <path fill="#25C068" d="M.047 6.619l5.84-5.84c.988-.99 2.592-.99 3.58 0l5.84 5.84-5.84 5.84c-.988.988-2.592.988-3.58 0l-5.84-5.84z" mask="url(#i0eute7ugf)"/>
                    </g>
                    <path fill="#25C068" d="M32.728 3.772l5.84 5.84c.988.989.988 2.592 0 3.581L28.373 23.388l-5.84-5.84c-.989-.989-.989-2.592 0-3.581L32.728 3.772z"/>
                    <path fill="#FFF" d="M54.804 21.413h3.616c1.415 0 2.448-1.006 2.448-2.31 0-1.306-1.033-2.23-2.475-2.23h-3.589v4.54zm0-7.776h2.746c1.197 0 2.04-.843 2.04-2.013 0-1.114-.843-1.957-2.012-1.957h-2.774v3.97zM50.698 25.03V6.078h7.532c1.523 0 2.8.462 3.834 1.386 1.06.898 1.577 2.067 1.577 3.454 0 1.821-.897 3.262-2.42 3.806 2.42.435 3.807 2.284 3.807 4.704 0 1.605-.544 2.964-1.659 4.025-1.087 1.06-2.447 1.577-4.105 1.577h-8.566zM69.379 13.365c1.196 0 2.23 1.006 2.23 2.202 0 1.224-1.034 2.23-2.23 2.23-1.197 0-2.23-1.006-2.23-2.23 0-1.196 1.033-2.202 2.23-2.202M78.868 15.105h3.563c.57 0 1.141-.19 1.658-.598.517-.408.789-1.088.789-2.012 0-.925-.272-1.577-.789-1.985-.517-.408-1.087-.626-1.658-.626h-3.563v5.221zm-4.187 9.925V6.077h7.994c1.605 0 3.046.599 4.378 1.768 1.332 1.17 2.012 2.719 2.012 4.65 0 1.849-.652 3.371-1.958 4.595-1.305 1.224-2.773 1.822-4.432 1.822h-3.807v6.118h-4.187zM91.214 25.03V11.325h4.051v1.877c.625-1.387 2.094-2.176 3.97-2.176.272 0 .625.028 1.06.082v3.807c-.408-.082-.87-.136-1.36-.136-2.31 0-3.67 1.305-3.67 3.562v6.689h-4.051zM106.142 20.734c.68.68 1.523 1.033 2.529 1.033s1.849-.354 2.528-1.033c.68-.707 1.034-1.55 1.034-2.556 0-1.007-.354-1.85-1.034-2.53-.68-.706-1.522-1.06-2.528-1.06s-1.85.354-2.53 1.06c-.679.68-1.032 1.523-1.032 2.53 0 1.006.353 1.876 1.033 2.556m7.913-7.695c1.495 1.386 2.23 3.1 2.23 5.139s-.735 3.752-2.23 5.166c-1.496 1.387-3.29 2.094-5.384 2.094-2.121 0-3.916-.707-5.411-2.094-1.469-1.414-2.203-3.127-2.203-5.166 0-2.04.734-3.753 2.203-5.14 1.495-1.414 3.29-2.12 5.41-2.12 2.094 0 3.889.706 5.385 2.12M119.303 25.03L119.303 14.996 117.481 14.996 117.481 11.325 119.303 11.325 119.303 6.077 123.246 6.077 123.246 11.325 126.264 11.325 126.264 14.996 123.246 14.996 123.246 25.03zM131.974 20.734c.68.68 1.523 1.033 2.529 1.033s1.849-.354 2.529-1.033c.68-.707 1.033-1.55 1.033-2.556 0-1.007-.353-1.85-1.033-2.53-.68-.706-1.523-1.06-2.529-1.06s-1.849.354-2.529 1.06c-.68.68-1.033 1.523-1.033 2.53 0 1.006.353 1.876 1.033 2.556m7.913-7.695c1.495 1.386 2.23 3.1 2.23 5.139s-.735 3.752-2.23 5.166c-1.496 1.387-3.29 2.094-5.384 2.094-2.12 0-3.915-.707-5.411-2.094-1.468-1.414-2.203-3.127-2.203-5.166 0-2.04.735-3.753 2.203-5.14 1.496-1.414 3.29-2.12 5.411-2.12 2.094 0 3.888.706 5.384 2.12M155.522 12.141v3.916c-1.06-1.006-2.393-1.496-3.943-1.496-1.115 0-2.066.326-2.8 1.006-.734.68-1.088 1.523-1.088 2.583 0 2.067 1.632 3.562 3.888 3.562 1.578 0 2.883-.489 3.943-1.468v3.888c-1.087.843-2.502 1.251-4.269 1.251-2.202 0-4.024-.68-5.465-2.04-1.441-1.386-2.149-3.099-2.149-5.193 0-2.093.708-3.806 2.149-5.193 1.44-1.387 3.263-2.067 5.465-2.067 1.713 0 3.154.408 4.269 1.251M162.375 20.734c.68.68 1.522 1.033 2.529 1.033 1.006 0 1.848-.354 2.528-1.033.68-.707 1.034-1.55 1.034-2.556 0-1.007-.354-1.85-1.034-2.53-.68-.706-1.522-1.06-2.528-1.06-1.007 0-1.85.354-2.53 1.06-.679.68-1.033 1.523-1.033 2.53 0 1.006.354 1.876 1.034 2.556m7.912-7.695c1.496 1.386 2.23 3.1 2.23 5.139s-.734 3.752-2.23 5.166c-1.495 1.387-3.29 2.094-5.383 2.094-2.121 0-3.916-.707-5.412-2.094-1.468-1.414-2.202-3.127-2.202-5.166 0-2.04.734-3.753 2.202-5.14 1.496-1.414 3.29-2.12 5.412-2.12 2.093 0 3.888.706 5.383 2.12"/>
                    <mask id="96batmkpih" fill="#fff">
                        <use xlink:href="#81dqxnopeg"/>
                    </mask>
                    <path fill="#FFF" d="M174.638 25.03L178.69 25.03 178.69 6.078 174.638 6.078z" mask="url(#96batmkpih)"/>
                </g>
            </g>
        </g>
    </g>
</svg>
