<svg xmlns="http://www.w3.org/2000/svg" width="30" height="30" viewBox="0 0 30 30">
    <g fill="none" fill-rule="evenodd">
        <g>
            <g>
                <g>
                    <g transform="translate(-1569 -165) translate(1111 165) translate(456) translate(2)">
                        <circle cx="15" cy="15" r="15" fill="#000"/>
                        <path fill="#02D394" fill-rule="nonzero" d="M7.723 19.01C7.281 18.74 7 18.242 7 17.73v-2.926c0-.108.027-.216.08-.31.175-.297.563-.404.858-.23l6.564 3.856c.389.23.617.634.617 1.092v3.034c0 .134-.04.27-.108.39-.214.351-.683.472-1.031.257L7.723 19.01zm9.794-5.554c.388.23.616.634.616 1.092v6.16c0 .19-.094.351-.255.446l-1.433.808c-.013.014-.04.014-.054.027v-3.41c0-.445-.227-.85-.602-1.079l-5.761-3.464V10.14c0-.108.027-.216.08-.31.174-.297.563-.405.858-.23l6.55 3.856zm2.867-4.557c.388.23.616.634.616 1.092v8.992c0 .189-.107.35-.268.445l-1.366.741v-6.255c0-.444-.228-.849-.603-1.078l-5.895-3.559V5.624c0-.108.027-.216.08-.31.174-.297.563-.405.858-.23L20.384 8.9z"/>
                    </g>
                </g>
            </g>
        </g>
    </g>
</svg>
