<svg xmlns="http://www.w3.org/2000/svg" width="146" height="33" viewBox="0 0 146 33">
    <g fill="none" fill-rule="evenodd">
        <g fill-rule="nonzero">
            <g>
                <path fill="#0B0412" d="M142.743 18.62c0-1.894-1.117-3.326-2.889-3.326-1.772 0-2.889 1.432-2.889 3.326 0 1.893 1.117 3.326 2.889 3.326 1.772 0 2.889-1.433 2.889-3.326zm-.097-4.588V9.055c0-.34.218-.607.534-.704l2.622-.704v16.799h-2.913v-1.432c-.729 1.068-2.064 1.699-3.715 1.699-3.398 0-5.365-2.719-5.365-6.118 0-3.398 1.99-6.117 5.365-6.117 1.675.024 2.865.728 3.472 1.554zm-17.964-1.263v1.432c.534-.995 1.747-1.699 3.471-1.699 2.816 0 4.297 1.87 4.297 4.661v7.307h-3.156v-6.943c0-1.36-.583-2.306-1.99-2.306-1.53 0-2.38.971-2.38 2.549v6.7h-3.156V12.793h2.914v-.024zm-10.318 11.968c-3.423 0-5.316-1.48-5.316-5.268v-6.7h3.156v6.749c0 1.626.728 2.379 2.136 2.379 1.408 0 2.136-.753 2.136-2.38V12.77h3.156v6.7c.024 3.787-1.87 5.268-5.268 5.268zm-15.78-6.117c0 2.087 1.287 3.326 2.963 3.326 1.675 0 2.961-1.239 2.961-3.326 0-2.088-1.286-3.326-2.961-3.326-1.651 0-2.962 1.214-2.962 3.326zm2.963 6.117c-3.739 0-6.142-2.791-6.142-6.117s2.379-6.118 6.142-6.118c3.738 0 6.141 2.792 6.141 6.118 0 3.326-2.379 6.117-6.141 6.117zm-15.78-6.117c0 1.893 1.117 3.326 2.889 3.326 1.772 0 2.889-1.433 2.889-3.326 0-1.894-1.117-3.326-2.889-3.326-1.772 0-2.889 1.432-2.889 3.326zm.097 4.588v4.855c0 .34-.218.607-.534.704l-2.622.68V12.769h2.913v1.432c.729-1.068 2.064-1.699 3.715-1.699 3.398 0 5.365 2.72 5.365 6.118s-1.991 6.117-5.365 6.117c-1.675 0-2.865-.728-3.472-1.53zm-12.575-5.39v6.652h-3.156v-6.943c0-1.286-.46-2.306-1.869-2.306-1.48 0-2.282.947-2.282 2.525v6.724h-3.156v-11.7h2.913V14.2c.534-.995 1.7-1.699 3.375-1.699 1.578 0 2.719.631 3.398 1.65 1.02-1.14 2.21-1.65 3.885-1.65 2.816 0 4.248 1.942 4.248 4.661v7.307h-3.156v-6.943c0-1.286-.461-2.306-1.87-2.306-1.553 0-2.33.971-2.33 2.598zm-21.047.802c0 2.087 1.287 3.326 2.962 3.326 1.675 0 2.961-1.239 2.961-3.326 0-2.088-1.286-3.326-2.961-3.326-1.675 0-2.962 1.214-2.962 3.326zm2.962 6.117c-3.739 0-6.142-2.791-6.142-6.117s2.379-6.118 6.142-6.118c3.762 0 6.141 2.792 6.141 6.118 0 3.326-2.403 6.117-6.141 6.117zm-22.577-8.23c0-4.952 3.423-8.229 7.962-8.229 3.957 0 7.065 2.33 7.672 6.19h-3.472c-.461-1.99-2.063-3.107-4.2-3.107-2.888 0-4.54 2.015-4.54 5.122 0 3.132 1.627 5.123 4.54 5.123 2.112 0 3.715-1.117 4.2-3.108h3.472c-.607 3.86-3.715 6.19-7.672 6.19-4.54.074-7.962-3.228-7.962-8.18z" transform="translate(-482 -47) translate(482 47)"/>
                <path fill="#00BC83" d="M1.457 25.441C.655 24.956.146 24.058.146 23.135v-5.268c0-.194.048-.388.145-.558.316-.534 1.02-.728 1.554-.413L13.74 23.84c.704.413 1.117 1.141 1.117 1.966v5.462c0 .243-.073.486-.194.704-.389.632-1.238.85-1.87.462L1.457 25.44zM19.202 15.44c.704.412 1.117 1.14 1.117 1.966V28.5c0 .34-.17.631-.461.801l-2.598 1.457c-.024.024-.073.024-.097.048v-6.142c0-.8-.413-1.529-1.092-1.942L5.632 16.483V9.468c0-.195.049-.389.146-.559.315-.534 1.02-.728 1.553-.412l11.871 6.943zm5.195-8.206c.704.413 1.117 1.141 1.117 1.967v16.192c0 .34-.194.63-.485.8l-2.477 1.336V16.265c0-.801-.412-1.53-1.092-1.942L10.779 7.914V1.335c0-.194.048-.388.145-.558.316-.534 1.02-.728 1.554-.413l11.92 6.87z" transform="translate(-482 -47) translate(482 47)"/>
            </g>
        </g>
    </g>
</svg>
