<svg xmlns="http://www.w3.org/2000/svg" width="105" height="24" viewBox="0 0 105 24">
    <g fill="none" fill-rule="evenodd">
        <g fill="#FFF" fill-rule="nonzero">
            <g>
                <g>
                    <path d="M101.96 13.3c0-1.353-.798-2.376-2.064-2.376s-2.064 1.023-2.064 2.376c0 1.352.798 2.375 2.064 2.375s2.063-1.023 2.063-2.375zm-.07-3.277V6.468c0-.243.156-.434.381-.503l1.873-.503v12h-2.08v-1.024c-.521.763-1.475 1.214-2.654 1.214-2.427 0-3.832-1.942-3.832-4.37 0-2.427 1.422-4.37 3.832-4.37 1.197.018 2.046.521 2.48 1.11zM89.058 9.12v1.023c.382-.711 1.249-1.214 2.48-1.214 2.011 0 3.069 1.335 3.069 3.33v5.219h-2.254v-4.96c0-.97-.416-1.647-1.422-1.647-1.092 0-1.7.694-1.7 1.82v4.787h-2.254v-8.34h2.081V9.12zm-7.37 8.548c-2.444 0-3.797-1.057-3.797-3.762V9.12h2.254v4.82c0 1.162.52 1.7 1.526 1.7s1.526-.538 1.526-1.7v-4.82h2.255v4.786c.017 2.705-1.336 3.762-3.763 3.762zm-11.27-4.37c0 1.492.919 2.376 2.115 2.376 1.197 0 2.116-.884 2.116-2.375s-.92-2.376-2.116-2.376c-1.179 0-2.115.867-2.115 2.376zm2.115 4.37c-2.67 0-4.387-1.994-4.387-4.37 0-2.375 1.7-4.369 4.387-4.369 2.67 0 4.387 1.994 4.387 4.37 0 2.375-1.7 4.37-4.387 4.37zm-11.27-4.37c0 1.353.797 2.376 2.063 2.376 1.265 0 2.063-1.023 2.063-2.375 0-1.353-.797-2.376-2.063-2.376s-2.064 1.023-2.064 2.376zm.069 3.278v3.468c0 .243-.156.434-.382.503l-1.873.485V9.121h2.081v1.023c.52-.763 1.474-1.214 2.653-1.214 2.428 0 3.832 1.942 3.832 4.37 0 2.427-1.422 4.37-3.832 4.37-1.196 0-2.046-.52-2.48-1.093zm-8.983-3.85v4.752h-2.254v-4.96c0-.919-.33-1.647-1.335-1.647-1.058 0-1.63.676-1.63 1.804v4.803h-2.254V9.12h2.08v1.023c.382-.711 1.215-1.214 2.411-1.214 1.127 0 1.942.45 2.428 1.18.728-.816 1.578-1.18 2.774-1.18 2.011 0 3.034 1.387 3.034 3.33v5.219H55.35v-4.96c0-.919-.33-1.647-1.335-1.647-1.11 0-1.665.694-1.665 1.856zm-15.033.573c0 1.491.919 2.375 2.115 2.375 1.197 0 2.116-.884 2.116-2.375s-.92-2.376-2.116-2.376c-1.196 0-2.115.867-2.115 2.376zm2.115 4.37c-2.67 0-4.387-1.995-4.387-4.37 0-2.376 1.7-4.37 4.387-4.37 2.688 0 4.387 1.994 4.387 4.37 0 2.375-1.716 4.37-4.387 4.37zM23.305 11.79c0-3.537 2.445-5.878 5.687-5.878 2.827 0 5.046 1.665 5.48 4.422h-2.48c-.33-1.422-1.474-2.22-3-2.22-2.063 0-3.242 1.44-3.242 3.659 0 2.237 1.162 3.659 3.242 3.659 1.51 0 2.653-.798 3-2.22h2.48c-.434 2.757-2.653 4.422-5.48 4.422-3.242.052-5.687-2.306-5.687-5.844zM1.04 18.172c-.572-.346-.936-.988-.936-1.647v-3.763c0-.138.035-.277.104-.399.226-.381.728-.52 1.11-.294l8.496 4.959c.503.295.798.815.798 1.404v3.902c0 .173-.052.347-.139.503-.277.45-.884.607-1.335.33L1.04 18.171zm12.676-7.144c.503.295.798.815.798 1.405v7.924c0 .243-.122.451-.33.572l-1.855 1.04c-.018.018-.052.018-.07.035v-4.387c0-.572-.294-1.092-.78-1.387l-7.456-4.456V6.763c0-.14.035-.278.104-.4.225-.38.728-.52 1.11-.294l8.479 4.96zm3.71-5.86c.504.294.798.814.798 1.404v11.566c0 .242-.138.45-.346.572l-1.77.954v-8.046c0-.572-.294-1.093-.78-1.387L7.7 5.653v-4.7c0-.138.035-.277.104-.398.225-.382.728-.52 1.11-.295l8.514 4.907z" transform="translate(-28 -461) translate(-15) translate(43 461)"/>
                </g>
            </g>
        </g>
    </g>
</svg>
