<svg xmlns="http://www.w3.org/2000/svg" width="103" height="24" viewBox="0 0 103 24">
    <g fill="none" fill-rule="evenodd">
        <g fill="#180928" fill-rule="nonzero">
            <g>
                <g>
                    <path d="M99.104 12.927c0-1.314-.775-2.309-2.005-2.309s-2.006.995-2.006 2.31c0 1.314.775 2.308 2.006 2.308 1.23 0 2.005-.994 2.005-2.309zm-.067-3.185V6.287c0-.236.152-.422.37-.49l1.821-.488v11.663h-2.023v-.994c-.505.742-1.432 1.18-2.578 1.18-2.36 0-3.725-1.888-3.725-4.247 0-2.36 1.382-4.248 3.725-4.248 1.163.017 1.989.506 2.41 1.079zm-12.472-.877v.995c.37-.691 1.213-1.18 2.41-1.18 1.955 0 2.983 1.298 2.983 3.236v5.073h-2.191v-4.82c0-.944-.405-1.601-1.382-1.601-1.062 0-1.652.674-1.652 1.77v4.651h-2.19V8.882h2.022v-.017zm-7.164 8.31c-2.376 0-3.69-1.028-3.69-3.658V8.865h2.19v4.686c0 1.13.506 1.652 1.484 1.652.977 0 1.483-.523 1.483-1.652V8.865h2.19v4.652c.018 2.63-1.297 3.658-3.657 3.658zm-10.955-4.248c0 1.45.893 2.31 2.056 2.31s2.057-.86 2.057-2.31c0-1.45-.894-2.309-2.057-2.309-1.146 0-2.056.843-2.056 2.31zm2.056 4.248c-2.595 0-4.264-1.939-4.264-4.248S67.89 8.68 70.502 8.68c2.596 0 4.264 1.938 4.264 4.247 0 2.31-1.651 4.248-4.264 4.248zm-10.955-4.248c0 1.315.775 2.31 2.006 2.31 1.23 0 2.005-.995 2.005-2.31 0-1.314-.775-2.309-2.005-2.309s-2.006.995-2.006 2.31zm.067 3.186v3.37c0 .237-.151.422-.37.49l-1.82.471V8.865h2.022v.995c.505-.742 1.432-1.18 2.578-1.18 2.36 0 3.725 1.888 3.725 4.247 0 2.36-1.382 4.248-3.725 4.248-1.162 0-1.988-.506-2.41-1.062zm-8.73-3.742v4.618h-2.191v-4.82c0-.893-.32-1.601-1.298-1.601-1.028 0-1.585.657-1.585 1.753v4.668h-2.19V8.865h2.022v.995c.37-.691 1.18-1.18 2.343-1.18 1.095 0 1.887.438 2.36 1.146.707-.792 1.533-1.146 2.696-1.146 1.955 0 2.95 1.348 2.95 3.236v5.073H53.8v-4.82c0-.893-.32-1.601-1.298-1.601-1.079 0-1.618.674-1.618 1.803zm-14.613.556c0 1.45.893 2.31 2.056 2.31s2.056-.86 2.056-2.31c0-1.45-.893-2.309-2.056-2.309s-2.056.843-2.056 2.31zm2.056 4.248c-2.596 0-4.264-1.939-4.264-4.248s1.652-4.247 4.264-4.247c2.613 0 4.264 1.938 4.264 4.247 0 2.31-1.668 4.248-4.264 4.248zM22.652 11.46c0-3.438 2.377-5.714 5.529-5.714 2.747 0 4.904 1.618 5.326 4.298h-2.41c-.32-1.382-1.433-2.157-2.916-2.157-2.006 0-3.152 1.399-3.152 3.556 0 2.174 1.13 3.556 3.152 3.556 1.466 0 2.578-.775 2.916-2.157h2.41c-.422 2.68-2.579 4.298-5.326 4.298-3.152.05-5.529-2.242-5.529-5.68zM1.011 17.663c-.556-.337-.91-.96-.91-1.6v-3.658c0-.135.034-.27.101-.388.22-.37.708-.505 1.079-.286l8.259 4.82c.488.287.775.792.775 1.365v3.793c0 .168-.05.337-.135.488-.27.439-.86.59-1.298.32l-7.87-4.854zm12.32-6.944c.49.287.776.793.776 1.366v7.702c0 .236-.118.438-.32.556l-1.803 1.012c-.017.016-.051.016-.068.033v-4.264c0-.556-.286-1.062-.758-1.348L3.91 11.444v-4.87c0-.136.034-.27.101-.388.22-.371.708-.506 1.08-.287l8.24 4.82zm3.608-5.696c.489.286.775.792.775 1.365V17.63c0 .236-.135.438-.337.556l-1.72.927v-7.82c0-.557-.286-1.062-.758-1.349l-7.416-4.45V.928c0-.135.034-.27.102-.388.219-.37.707-.505 1.078-.286l8.276 4.77z" transform="translate(-516 -230) translate(349 230) translate(167.992 .972)"/>
                </g>
            </g>
        </g>
    </g>
</svg>
