<svg xmlns="http://www.w3.org/2000/svg" width="126" height="29" viewBox="0 0 126 29">
    <g fill="none" fill-rule="evenodd">
        <g fill="#180928" fill-rule="nonzero">
            <g>
                <g>
                    <path d="M122.351 15.96c0-1.623-.957-2.851-2.476-2.851-1.52 0-2.476 1.228-2.476 2.85 0 1.624.957 2.851 2.476 2.851 1.519 0 2.476-1.227 2.476-2.85zm-.083-3.933V7.761c0-.29.187-.52.458-.603l2.247-.603v14.399h-2.497v-1.228c-.624.916-1.769 1.457-3.184 1.457-2.913 0-4.598-2.331-4.598-5.244s1.706-5.244 4.598-5.244c1.436.021 2.456.625 2.976 1.332zm-15.398-1.082v1.228c.458-.853 1.498-1.457 2.975-1.457 2.414 0 3.683 1.602 3.683 3.995v6.263h-2.705v-5.95c0-1.166-.499-1.977-1.706-1.977-1.31 0-2.039.832-2.039 2.184v5.743h-2.705V10.966h2.497v-.021zm-8.844 10.258c-2.933 0-4.556-1.269-4.556-4.515v-5.743h2.705v5.785c0 1.394.624 2.039 1.83 2.039 1.208 0 1.832-.645 1.832-2.04v-5.784h2.705v5.743c.02 3.246-1.602 4.515-4.516 4.515zM84.501 15.96c0 1.79 1.103 2.85 2.539 2.85 1.436 0 2.538-1.06 2.538-2.85s-1.102-2.851-2.538-2.851c-1.415 0-2.539 1.04-2.539 2.85zm2.539 5.243c-3.205 0-5.265-2.393-5.265-5.243 0-2.851 2.04-5.244 5.265-5.244 3.204 0 5.264 2.393 5.264 5.244 0 2.85-2.039 5.243-5.264 5.243zM73.515 15.96c0 1.623.957 2.85 2.476 2.85 1.519 0 2.476-1.227 2.476-2.85s-.957-2.851-2.476-2.851c-1.52 0-2.476 1.228-2.476 2.85zm.083 3.932v4.162c0 .291-.187.52-.458.603l-2.247.583V10.945h2.497v1.228c.624-.916 1.768-1.457 3.183-1.457 2.914 0 4.599 2.33 4.599 5.244 0 2.913-1.706 5.243-4.599 5.243-1.435 0-2.455-.624-2.975-1.31zm-10.779-4.619v5.701h-2.705v-5.95c0-1.103-.395-1.977-1.602-1.977-1.27 0-1.956.811-1.956 2.164v5.763h-2.705V10.945h2.497v1.228c.458-.853 1.457-1.457 2.892-1.457 1.353 0 2.33.541 2.913 1.415.874-.978 1.894-1.415 3.33-1.415 2.414 0 3.641 1.665 3.641 3.995v6.263H66.42v-5.95c0-1.103-.395-1.977-1.602-1.977-1.332 0-1.998.832-1.998 2.226zm-18.04.687c0 1.79 1.103 2.85 2.538 2.85 1.436 0 2.539-1.06 2.539-2.85s-1.103-2.851-2.539-2.851c-1.435 0-2.538 1.04-2.538 2.85zm2.538 5.243c-3.204 0-5.264-2.393-5.264-5.243 0-2.851 2.04-5.244 5.264-5.244 3.226 0 5.265 2.393 5.265 5.244 0 2.85-2.06 5.243-5.265 5.243zM27.966 14.15c0-4.244 2.934-7.053 6.825-7.053 3.392 0 6.055 1.997 6.575 5.306h-2.975c-.396-1.707-1.769-2.664-3.6-2.664-2.476 0-3.891 1.727-3.891 4.39 0 2.685 1.394 4.391 3.891 4.391 1.81 0 3.184-.957 3.6-2.663h2.975c-.52 3.308-3.183 5.306-6.575 5.306-3.891.062-6.825-2.768-6.825-7.013zM1.248 21.807C.562 21.39.125 20.62.125 19.83v-4.515c0-.167.041-.333.125-.479.27-.458.874-.624 1.331-.354l10.196 5.951c.604.354.957.978.957 1.686V26.8c0 .208-.062.416-.166.603-.333.541-1.061.728-1.602.395l-9.718-5.992zm15.211-8.573c.604.354.957.978.957 1.685v9.51c0 .29-.145.54-.395.686l-2.227 1.249c-.02.02-.062.02-.083.041v-5.264c0-.687-.353-1.311-.936-1.665L4.827 14.13V8.115c0-.166.042-.333.125-.478.27-.458.874-.625 1.332-.354l10.175 5.95zM20.912 6.2c.603.354.957.978.957 1.685v13.88c0 .29-.166.54-.416.686l-2.122 1.144v-9.655c0-.686-.354-1.31-.937-1.664L9.24 6.783V1.144c0-.166.041-.332.125-.478.27-.458.874-.624 1.331-.354l10.217 5.889z" transform="translate(-836 -379) translate(487 378) translate(349.2 1.2)"/>
                </g>
            </g>
        </g>
    </g>
</svg>
