<svg xmlns="http://www.w3.org/2000/svg" width="122" height="92" viewBox="0 0 122 92">
    <g fill="none" fill-rule="evenodd">
        <g>
            <g>
                <g>
                    <path fill="#0B0412" d="M84.8 79.2c0 4.848-3.952 8.8-8.8 8.8-4.848 0-8.8-3.952-8.8-8.8v-4h11.2V17.6H67.2V12c0-4.849 3.952-8.8 8.8-8.8 4.848 0 8.8 3.951 8.8 8.8v67.2zM16 72c-2.64 0-4.8-2.16-4.8-4.8V25.6c0-2.64 2.16-4.8 4.8-4.8h59.2V72H16zm72-28.8v-4.8h14.4c4.411 0 8-3.589 8-8V24c0-.883-.716-1.6-1.6-1.6-.884 0-1.6.717-1.6 1.6v6.4c0 2.647-2.153 4.8-4.8 4.8H88v-4.8h3.2c4.411 0 8-3.589 8-8V11.2c0-.883-.716-1.6-1.6-1.6-.884 0-1.6.717-1.6 1.6v11.2c0 2.647-2.153 4.8-4.8 4.8H88V12c0-6.624-5.376-12-12-12S64 5.376 64 12v5.6H16c-4.416 0-8 3.584-8 8v41.6c0 4.416 3.584 8 8 8h48v4c0 6.624 5.376 12 12 12s12-5.376 12-12V62.4h3.2c2.647 0 4.8 2.153 4.8 4.8v11.2c0 .883.716 1.6 1.6 1.6.884 0 1.6-.717 1.6-1.6V67.2c0-4.411-3.589-8-8-8H88v-4.8h14.4c2.647 0 4.8 2.153 4.8 4.8v6.4c0 .883.716 1.6 1.6 1.6.884 0 1.6-.717 1.6-1.6v-6.4c0-4.411-3.589-8-8-8H88v-4.8h25.6c.884 0 1.6-.717 1.6-1.6 0-.883-.716-1.6-1.6-1.6H88z" transform="translate(-1581 -164) translate(1581 164) matrix(-1 0 0 1 122 0)"/>
                    <path fill="#0B0412" d="M22.4 12.8h27.2c.884 0 1.6-.717 1.6-1.6 0-.883-.716-1.6-1.6-1.6H22.4c-.884 0-1.6.717-1.6 1.6 0 .883.716 1.6 1.6 1.6M15 80C8.494 80 3.2 74.706 3.2 68.2V64c0-.883-.716-1.6-1.6-1.6-.884 0-1.6.717-1.6 1.6v4.2c0 8.271 6.73 15 15 15h17c.884 0 1.6-.717 1.6-1.6 0-.883-.716-1.6-1.6-1.6H15zM36.8 79.8c-.992 0-1.8.808-1.8 1.8s.808 1.8 1.8 1.8 1.8-.808 1.8-1.8-.808-1.8-1.8-1.8M17.6 13c.992 0 1.8-.808 1.8-1.8s-.808-1.8-1.8-1.8-1.8.808-1.8 1.8.808 1.8 1.8 1.8" opacity=".272" transform="translate(-1581 -164) translate(1581 164) matrix(-1 0 0 1 122 0)"/>
                    <path fill="#12C164" d="M121.6 44.8c0 2.65-2.15 4.8-4.8 4.8s-4.8-2.15-4.8-4.8 2.15-4.8 4.8-4.8 4.8 2.15 4.8 4.8M113.6 24c0 2.65-2.15 4.8-4.8 4.8S104 26.65 104 24s2.15-4.8 4.8-4.8 4.8 2.15 4.8 4.8M102.4 8c0 2.65-2.15 4.8-4.8 4.8s-4.8-2.15-4.8-4.8 2.15-4.8 4.8-4.8 4.8 2.15 4.8 4.8M113.6 65.6c0-2.65-2.15-4.8-4.8-4.8s-4.8 2.15-4.8 4.8 2.15 4.8 4.8 4.8 4.8-2.15 4.8-4.8M102.4 81.6c0-2.65-2.15-4.8-4.8-4.8s-4.8 2.15-4.8 4.8 2.15 4.8 4.8 4.8 4.8-2.15 4.8-4.8" transform="translate(-1581 -164) translate(1581 164) matrix(-1 0 0 1 122 0)"/>
                </g>
                <g stroke="#0B0412" transform="translate(-1581 -164) translate(1581 164) translate(86 34)">
                    <path fill="#FFF" stroke-width="3" d="M26.31 1.5c1.243 0 2.368.504 3.182 1.318.814.814 1.318 1.94 1.318 3.182h0v10.77c0 1.243-.504 2.368-1.318 3.182-.814.814-1.94 1.318-3.182 1.318h0H6c-1.243 0-2.368-.504-3.182-1.318-.814-.814-1.318-1.94-1.318-3.182h0V6c0-1.243.504-2.368 1.318-3.182C3.632 2.004 4.758 1.5 6 1.5h0z"/>
                    <circle cx="10.8" cy="11.7" r="3.1" stroke-width="2.8"/>
                </g>
            </g>
        </g>
    </g>
</svg>
