<svg xmlns="http://www.w3.org/2000/svg" xmlns:xlink="http://www.w3.org/1999/xlink" width="31" height="32" viewBox="0 0 31 32">
    <defs>
        <path id="m4s0jn6e8a" d="M0 0.016L31.014 0.016 31.014 31.03 0 31.03z"/>
    </defs>
    <g fill="none" fill-rule="evenodd">
        <path fill="#25C068" d="M18.177 14.914c-.794 0-1.438.735-1.438 1.643s.644 1.643 1.438 1.643c.795 0 1.438-.735 1.438-1.643s-.643-1.643-1.438-1.643M12.837 14.914c-.795 0-1.438.735-1.438 1.643s.643 1.643 1.438 1.643c.794 0 1.438-.735 1.438-1.643s-.644-1.643-1.438-1.643"/>
        <g transform="translate(0 .212)">
            <mask id="plyrwg00pb" fill="#fff">
                <use xlink:href="#m4s0jn6e8a"/>
            </mask>
            <path fill="#25C068" d="M19.204 22.096l-.674-.897c1.145-.398 2.434-1.107 3.55-2.39-1.33 1.007-3.338 2.054-6.573 2.054-3.235 0-5.242-1.047-6.572-2.053 1.115 1.282 2.405 1.99 3.549 2.389l-.674.897s-3.22-.02-5.34-2.465c.36-5.987 2.465-9.037 2.465-9.037s1.774-1.423 4.107-1.643l.2.401c-1.835.414-2.932 1.197-3.897 2.063 1.663-.848 3.303-1.643 6.162-1.643s4.5.795 6.162 1.643c-.965-.866-1.887-1.57-3.898-2.063l.2-.401c2.225.168 4.109 1.643 4.109 1.643s2.103 3.05 2.464 9.037c-2.12 2.445-5.34 2.465-5.34 2.465M0 15.523c0 8.56 6.947 15.507 15.507 15.507 8.56 0 15.507-6.947 15.507-15.507 0-8.56-6.947-15.507-15.507-15.507C6.947.016 0 6.963 0 15.523z" mask="url(#plyrwg00pb)"/>
        </g>
    </g>
</svg>
