<svg xmlns="http://www.w3.org/2000/svg" xmlns:xlink="http://www.w3.org/1999/xlink" width="33" height="33" viewBox="0 0 33 33">
    <defs>
        <path id="l0k7z0n8sa" d="M0 0.016L31.224 0.016 31.224 31.24 0 31.24z"/>
    </defs>
    <g fill="none" fill-rule="evenodd">
        <g>
            <g transform="translate(-205 -961) translate(205.9 961)">
                <circle cx="16.5" cy="15.4" r="14.3" fill="#647686"/>
                <g>
                    <path fill="#0B0412" d="M18.3 15.014c-.8 0-1.447.74-1.447 1.655 0 .914.647 1.654 1.447 1.654s1.447-.74 1.447-1.654c0-.914-.647-1.655-1.447-1.655M12.924 15.014c-.8 0-1.448.74-1.448 1.655 0 .914.648 1.654 1.448 1.654.8 0 1.447-.74 1.447-1.654 0-.914-.647-1.655-1.447-1.655"/>
                    <g transform="translate(0 .213)">
                        <mask id="6n6dg6xz1b" fill="#fff">
                            <use xlink:href="#l0k7z0n8sa"/>
                        </mask>
                        <path fill="#121B23" d="M19.334 22.245l-.679-.903c1.152-.4 2.451-1.115 3.574-2.405-1.34 1.013-3.36 2.067-6.617 2.067s-5.278-1.054-6.617-2.067c1.123 1.29 2.422 2.005 3.573 2.405l-.678.903s-3.242-.02-5.377-2.481c.364-6.027 2.482-9.099 2.482-9.099s1.786-1.433 4.136-1.654l.201.404c-1.847.417-2.952 1.205-3.924 2.078 1.674-.855 3.325-1.655 6.204-1.655 2.878 0 4.53.8 6.203 1.655-.97-.873-1.9-1.582-3.924-2.078l.202-.404c2.24.17 4.136 1.654 4.136 1.654s2.117 3.072 2.481 9.099c-2.134 2.462-5.376 2.481-5.376 2.481M0 15.628C0 24.246 6.994 31.24 15.612 31.24s15.612-6.994 15.612-15.612C31.224 7.011 24.23.016 15.612.016S0 7.011 0 15.628z" mask="url(#6n6dg6xz1b)"/>
                    </g>
                </g>
            </g>
        </g>
    </g>
</svg>
