<svg xmlns="http://www.w3.org/2000/svg" width="24" height="38" viewBox="0 0 24 38">
    <g fill="none">
        <path fill="#8A92B2" d="M12.06.468v13.621c0 .059-.06.117-.12.117-.42.176-.78.35-1.2.526-.54.234-1.14.468-1.68.76l-1.98.877-1.62.702-1.98.877c-.54.234-1.08.467-1.68.76-.42.175-.9.409-1.32.584-.06 0-.06.059-.12 0H.3c.18-.292.36-.526.54-.818.96-1.579 1.98-3.157 2.94-4.736 1.02-1.695 2.1-3.39 3.12-5.086.96-1.578 1.92-3.157 2.88-4.677.72-1.169 1.44-2.28 2.1-3.449.12 0 .12-.058.18-.058-.06 0 0 0 0 0z"/>
        <path fill="#454A75" d="M23.7 19.292c-.9.585-1.86 1.111-2.76 1.637-2.94 1.696-5.82 3.333-8.76 5.028-.06 0-.06.058-.12.058s-.06-.058-.06-.058v-.175-11.4-.176c0-.058.06-.058.12-.058.24.117.48.234.78.35.72.351 1.5.644 2.22.994.66.293 1.26.585 1.92.819.66.292 1.26.584 1.92.877.54.234 1.14.467 1.68.76.54.234 1.14.467 1.68.76.42.175.84.409 1.32.584 0-.058 0 0 .06 0z"/>
        <path fill="#8A92B2" d="M12.06 37.474s-.06 0 0 0c-.06 0-.06 0-.12-.059-1.2-1.637-2.34-3.215-3.54-4.852l-3.6-4.91c-1.14-1.58-2.34-3.158-3.48-4.795l-.9-1.227c0-.059-.06-.059-.06-.117.06 0 .06.058.12.058 1.62.936 3.3 1.871 4.92 2.806 1.86 1.111 3.78 2.164 5.64 3.274.3.176.66.351.96.526.06 0 .06.059.06.117v9.179z"/>
        <path fill="gray" d="M.36 19.292s.06 0 0 0c.06 0 .06 0 0 0 0 .059 0 .059 0 0z"/>
        <path fill="#62688F" d="M.42 19.35c0-.058 0-.058 0 0 .6-.292 1.2-.525 1.8-.818l2.34-1.052c.6-.292 1.2-.526 1.8-.818.84-.41 1.74-.76 2.58-1.17.6-.234 1.2-.526 1.8-.76.42-.175.84-.35 1.26-.584.06 0 .06-.059.12-.059v11.926c-.06.059-.06 0-.12 0-.18-.117-.36-.175-.48-.292L.54 19.41c-.06-.058-.12-.058-.12-.058zM23.64 21.514c0 .058 0 .058-.06.117-3.48 4.794-6.96 9.529-10.44 14.323-.36.526-.72.994-1.08 1.52v-.059-.117-8.944-.176c.78-.467 1.56-.935 2.34-1.344l9.18-5.262c0-.058.06-.058.06-.058z"/>
        <path fill="#62688F" d="M12.06 14.148v-.117V.643.526l11.52 18.59c.06.06.12.118.12.176-.24-.117-.48-.234-.78-.35-.3-.117-.6-.293-.9-.41-.18-.058-.36-.175-.6-.234-.3-.116-.66-.292-.96-.409-.18-.058-.36-.175-.54-.234l-1.26-.526c-.24-.117-.42-.175-.66-.292-.3-.117-.6-.292-.9-.41-.18-.058-.36-.175-.54-.233l-1.26-.526c-.24-.117-.42-.176-.66-.293-.3-.117-.6-.292-.9-.409-.18-.117-.42-.175-.6-.292l-1.08-.526z"/>
    </g>
</svg>
