<svg xmlns="http://www.w3.org/2000/svg" width="45" height="45" viewBox="0 0 45 45">
    <g fill="none" fill-rule="evenodd">
        <g>
            <g>
                <g transform="translate(-489 -428) translate(463 381) translate(26 47)">
                    <circle cx="22.4" cy="22.4" r="22.4" fill="#7986CB" opacity=".297"/>
                    <g fill-rule="nonzero">
                        <g>
                            <path fill="#8A92B2" d="M9.648.374V11.271c0 .047-.048.094-.096.094-.336.14-.624.28-.96.42-.432.188-.912.375-1.344.609l-1.584.701-1.296.562-1.584.701c-.432.187-.864.374-1.344.608-.336.14-.72.328-1.056.468-.048 0-.048.047-.096 0H.24c.144-.234.288-.421.432-.655.768-1.263 1.584-2.525 2.352-3.788.816-1.357 1.68-2.713 2.496-4.07.768-1.262 1.536-2.525 2.304-3.74.576-.936 1.152-1.825 1.68-2.76.096 0 .096-.047.144-.047-.048 0 0 0 0 0z" transform="translate(12.8 7.2)"/>
                            <path fill="#454A75" d="M18.96 15.434c-.72.468-1.488.888-2.208 1.31-2.352 1.356-4.656 2.665-7.008 4.022-.048 0-.048.046-.096.046s-.048-.046-.048-.046v-.14-9.12-.141c0-.047.048-.047.096-.047.192.094.384.187.624.28.576.281 1.2.515 1.776.796.528.234 1.008.468 1.536.655.528.233 1.008.467 1.536.701.432.187.912.374 1.344.608.432.187.912.374 1.344.608.336.14.672.328 1.056.468 0-.047 0 0 .048 0z" transform="translate(12.8 7.2)"/>
                            <path fill="#8A92B2" d="M9.648 29.98s-.048 0 0 0c-.048 0-.048 0-.096-.048-.96-1.31-1.872-2.572-2.832-3.882l-2.88-3.928c-.912-1.263-1.872-2.526-2.784-3.835l-.72-.982c0-.047-.048-.047-.048-.094.048 0 .048.047.096.047 1.296.748 2.64 1.496 3.936 2.245 1.488.888 3.024 1.73 4.512 2.619.24.14.528.28.768.42.048 0 .048.048.048.094V29.98z" transform="translate(12.8 7.2)"/>
                            <path fill="gray" d="M.288 15.434s.048 0 0 0c.048 0 .048 0 0 0 0 .047 0 .047 0 0z" transform="translate(12.8 7.2)"/>
                            <path fill="#62688F" d="M.336 15.48c0-.046 0-.046 0 0 .48-.233.96-.42 1.44-.654l1.872-.842c.48-.234.96-.42 1.44-.655.672-.327 1.392-.608 2.064-.935.48-.187.96-.421 1.44-.608.336-.14.672-.28 1.008-.468.048 0 .048-.047.096-.047v9.541c-.048.047-.048 0-.096 0-.144-.093-.288-.14-.384-.234l-8.784-5.05c-.048-.047-.096-.047-.096-.047zM18.912 17.211c0 .047 0 .047-.048.094-2.784 3.835-5.568 7.623-8.352 11.458-.288.421-.576.795-.864 1.216v-.047-.093-7.156-.14c.624-.374 1.248-.749 1.872-1.076l7.344-4.21c0-.046.048-.046.048-.046z" transform="translate(12.8 7.2)"/>
                            <path fill="#62688F" d="M9.648 11.318v-.093V.515.42l9.216 14.873c.048.046.096.093.096.14-.192-.094-.384-.187-.624-.28-.24-.094-.48-.235-.72-.328-.144-.047-.288-.14-.48-.187-.24-.094-.528-.234-.768-.328-.144-.046-.288-.14-.432-.187l-1.008-.42c-.192-.094-.336-.14-.528-.234-.24-.094-.48-.234-.72-.328-.144-.047-.288-.14-.432-.187l-1.008-.42c-.192-.094-.336-.141-.528-.235-.24-.093-.48-.234-.72-.327-.144-.094-.336-.14-.48-.234l-.864-.42z" transform="translate(12.8 7.2)"/>
                        </g>
                    </g>
                </g>
            </g>
        </g>
    </g>
</svg>
