<svg xmlns="http://www.w3.org/2000/svg" xmlns:xlink="http://www.w3.org/1999/xlink" width="32" height="32" viewBox="0 0 32 32">
    <defs>
        <path id="inw3cypeka" d="M0 0L31.981 0 31.981 31.981 0 31.981z"/>
    </defs>
    <g fill="none" fill-rule="evenodd">
        <mask id="njeyyuan3b" fill="#fff">
            <use xlink:href="#inw3cypeka"/>
        </mask>
        <path fill="#25C068" d="M12.679 28.833l-.003-.898v-2.469c-3.689.803-4.456-1.564-4.456-1.564-.604-1.533-1.473-1.94-1.473-1.94-1.204-.824.091-.806.091-.806 1.332.093 2.032 1.367 2.032 1.367 1.183 2.027 3.102 1.44 3.859 1.101.118-.856.462-1.442.842-1.772-2.945-.337-6.041-1.474-6.041-6.553 0-1.449.518-2.631 1.366-3.56-.137-.334-.591-1.683.129-3.509 0 0 1.114-.355 3.647 1.36 1.058-.294 2.191-.441 3.319-.447 1.127.006 2.261.153 3.321.447 2.532-1.715 3.643-1.36 3.643-1.36.722 1.827.267 3.176.13 3.51.851.928 1.365 2.111 1.365 3.559 0 5.092-3.102 6.214-6.054 6.542.475.411.91 1.218.91 2.455v4.536c-1.06.273-2.17.418-3.315.418-1.144 0-2.254-.145-3.312-.417m16.555-12.199l-.007.11.007-.11M15.99 0C7.173 0 0 7.173 0 15.99c0 8.818 7.172 15.99 15.99 15.99 8.817 0 15.99-7.172 15.99-15.99C31.981 7.174 24.808 0 15.991 0" mask="url(#njeyyuan3b)"/>
    </g>
</svg>
