<svg xmlns="http://www.w3.org/2000/svg" xmlns:xlink="http://www.w3.org/1999/xlink" width="32" height="32" viewBox="0 0 32 32">
    <defs>
        <path id="ru2t00hyha" d="M0 0L31.221 0 31.221 31.221 0 31.221z"/>
    </defs>
    <g fill="none" fill-rule="evenodd">
        <g>
            <g transform="translate(-31 -961) translate(31 961)">
                <circle cx="15.4" cy="15.4" r="13.2" fill="#647686"/>
                <g>
                    <mask id="zfc9p0rkeb" fill="#fff">
                        <use xlink:href="#ru2t00hyha"/>
                    </mask>
                    <path fill="#121B23" d="M12.378 28.148l-.003-.877v-2.41c-3.601.784-4.35-1.527-4.35-1.527-.59-1.496-1.439-1.894-1.439-1.894-1.174-.804.09-.786.09-.786 1.3.09 1.984 1.334 1.984 1.334 1.154 1.978 3.028 1.407 3.766 1.075.116-.836.451-1.407.822-1.73-2.874-.329-5.897-1.439-5.897-6.398 0-1.414.506-2.568 1.334-3.474-.134-.327-.578-1.644.126-3.426 0 0 1.087-.347 3.56 1.327 1.033-.287 2.14-.43 3.24-.436 1.1.005 2.208.149 3.242.436 2.472-1.674 3.557-1.327 3.557-1.327.704 1.783.26 3.1.127 3.426.83.906 1.332 2.061 1.332 3.474 0 4.972-3.028 6.067-5.91 6.387.464.402.888 1.19.888 2.397v4.428c-1.035.266-2.119.408-3.236.408-1.116 0-2.2-.141-3.233-.407m16.161-11.909l-.006.108.006-.108M15.611 0C7.003 0 0 7.004 0 15.612s7.002 15.61 15.61 15.61c8.607 0 15.61-7.002 15.61-15.61S24.219 0 15.612 0" mask="url(#zfc9p0rkeb)"/>
                </g>
            </g>
        </g>
    </g>
</svg>
