<?xml version="1.0" encoding="UTF-8" standalone="no"?> <!-- Created with Vectornator for iOS (http://vectornator.io/) --><!DOCTYPE svg PUBLIC "-//W3C//DTD SVG 1.1//EN" "http://www.w3.org/Graphics/SVG/1.1/DTD/svg11.dtd">
<svg height="100%" style="fill-rule:nonzero;clip-rule:evenodd;stroke-linecap:round;stroke-linejoin:round;" xmlns:xlink="http://www.w3.org/1999/xlink" xmlns="http://www.w3.org/2000/svg" xml:space="preserve" width="100%" xmlns:vectornator="http://vectornator.io" version="1.1" viewBox="0 0 3432.94 470.155">
<metadata>
<vectornator:setting key="DimensionsVisible" value="1"/>
<vectornator:setting key="PencilOnly" value="0"/>
<vectornator:setting key="SnapToPoints" value="0"/>
<vectornator:setting key="GuidesVisible" value="1"/>
<vectornator:setting key="CMYKEnabledKey" value="0"/>
<vectornator:setting key="RulersVisible" value="1"/>
<vectornator:setting key="SnapToEdges" value="0"/>
<vectornator:setting key="OutlineMode" value="0"/>
<vectornator:setting key="DisplayWhiteBackground" value="0"/>
<vectornator:setting key="doHistoryDisabled" value="0"/>
<vectornator:setting key="TimeLapseWatermarkDisabled" value="0"/>
<vectornator:setting key="SnapToGuides" value="1"/>
<vectornator:setting key="Units" value="Points"/>
<vectornator:setting key="IsolateActiveLayer" value="0"/>
<vectornator:setting key="SnapToGrid" value="0"/>
<vectornator:setting key="DynamicGuides" value="0"/>
</metadata>
<defs/>
<g id="Layer 1" vectornator:layerName="Layer 1">
<path stroke="#ffffff" stroke-width="25.32" d="M137.315+47.5958L137.315+434.736" fill="none" stroke-linecap="round" opacity="1" stroke-linejoin="round"/>
<path d="M1016.4+245.386C1017.68+270.897+1013.13+296.366+1003.1+319.856C998.029+331.774+991.657+343.093+984.095+353.606C976.51+364.242+967.762+373.999+958.015+382.696C953.134+387.093+948.013+391.216+942.675+395.046C937.307+398.873+931.739+402.412+925.995+405.646C920.236+408.907+914.3+411.845+908.215+414.446C902.094+417.045+895.834+419.305+889.465+421.215C876.694+425.103+863.529+427.548+850.215+428.505L845.215+428.805L840.215+428.975C836.945+428.975+833.675+429.095+830.395+428.975C827.115+428.855+823.815+428.815+820.525+428.665C818.885+428.575+817.235+428.425+815.585+428.315L813.115+428.125L810.645+427.875C804.045+427.255+797.455+426.265+790.885+424.995C787.595+424.385+784.325+423.605+781.055+422.845C777.785+422.085+774.535+421.135+771.305+420.115C764.809+418.101+758.441+415.697+752.235+412.915C745.987+410.094+739.921+406.885+734.075+403.305C722.308+396.107+711.585+387.329+702.205+377.215C697.54+372.206+693.198+366.905+689.205+361.345C685.208+355.844+681.536+350.114+678.205+344.185C674.895+338.255+671.925+332.265+669.205+326.185C666.485+320.105+664.075+313.855+661.875+307.545C657.45+294.876+654.229+281.819+652.255+268.545C651.255+261.837+650.607+255.081+650.315+248.305C650.185+244.985+650.175+241.115+650.105+238.785C650.015+235.995+649.835+233.085+649.595+230.185C648.567+218.447+646.716+206.795+644.055+195.315C638.765+172.315+630.195+150.105+618.055+130.395C612.007+120.536+604.971+111.318+597.055+102.886C595.105+100.766+593.055+98.7758+590.985+96.7458C588.915+94.7158+586.775+92.8158+584.555+90.9758C582.335+89.1358+580.105+87.3458+577.865+85.5258C575.625+83.7058+573.275+82.0558+570.865+80.4658C561.304+73.9088+551.073+68.3878+540.345+63.9958C539.025+63.3958+537.635+62.9358+536.275+62.3958C534.915+61.8558+533.565+61.3258+532.175+60.8558L528.025+59.4558L525.945+58.7558L523.835+58.1358L519.615+56.8658C518.205+56.4458+516.765+56.1158+515.345+55.7358C513.925+55.3558+512.505+54.9858+511.065+54.6458L506.735+53.7058C495.077+51.2483+483.25+49.6804+471.355+49.0158C465.355+48.7158+459.355+48.4258+453.455+48.5158C447.555+48.6058+441.625+48.9158+435.735+49.5158C411.997+51.9646+388.909+58.7433+367.615+69.5158C346.043+80.4799+326.582+95.1767+310.135+112.926C301.859+121.844+294.38+131.471+287.785+141.696C281.144+151.994+275.453+162.876+270.785+174.206C261.351+197.222+256.096+221.735+255.265+246.595L255.265+246.595C255.959+207.973+267.675+170.352+289.035+138.166C310.389+105.931+340.247+80.2364+375.305+63.9258C392.794+55.8541+411.344+50.3119+430.395+47.4658C435.155+46.7558+439.935+46.2358+444.735+45.8358C449.535+45.4358+454.335+45.2558+459.155+45.2358C468.765+45.2358+478.375+45.5758+487.955+46.5158C507.153+48.3076+526.03+52.6318+544.095+59.3758C553.102+62.8207+561.823+66.9737+570.175+71.7958C578.522+76.6467+586.449+82.186+593.875+88.3558C608.725+100.745+621.493+115.435+631.695+131.866C641.871+148.277+649.862+165.946+655.465+184.426C658.317+193.638+660.653+203.003+662.465+212.476C664.289+221.95+665.561+231.523+666.275+241.146C666.445+243.556+666.575+245.966+666.635+248.396C666.635+249.646+666.635+250.776+666.725+251.966C666.815+253.156+666.845+254.326+666.925+255.516C667.245+260.256+667.755+264.986+668.405+269.706C669.701+279.143+671.568+288.494+673.995+297.706C678.692+316.135+686.025+333.79+695.765+350.126C705.492+366.426+718.284+380.689+733.435+392.126C741.014+397.783+749.141+402.668+757.695+406.706C766.264+410.729+775.172+413.988+784.315+416.446C802.615+421.376+821.665+423.336+840.655+423.306L840.655+427.856C821.345+427.786+801.915+425.696+783.185+420.556C773.817+417.989+764.695+414.599+755.925+410.425C747.146+406.227+738.811+401.158+731.045+395.295C715.559+383.488+702.506+368.794+692.605+352.025C682.735+335.347+675.326+317.331+670.605+298.535C668.193+289.185+666.346+279.698+665.075+270.125C664.445+265.345+663.955+260.535+663.645+255.705C663.575+254.505+663.515+253.295+663.465+252.085C663.415+250.875+663.465+249.615+663.395+248.455C663.345+246.095+663.225+243.725+663.065+241.345C662.419+231.843+661.217+222.387+659.465+213.026C657.735+203.651+655.485+194.38+652.725+185.256C647.285+166.965+639.486+149.461+629.525+133.186C619.552+116.926+607.041+102.369+592.465+90.0658C585.162+83.9414+577.361+78.4357+569.145+73.6058C560.911+68.7962+552.307+64.6498+543.415+61.2058C525.625+54.2758+506.805+50.2058+487.825+48.2058C478.315+47.2058+468.755+46.8458+459.195+46.7858C454.425+46.7858+449.655+47.0058+444.885+47.3158C440.115+47.6258+435.375+48.1858+430.645+48.8558C411.685+51.5839+393.21+56.9947+375.775+64.9258C340.789+81.0098+310.935+106.458+289.515+138.456C268.031+170.496+256.152+208.009+255.275+246.576L255.275+246.576C253.315+221.287+256.225+195.858+263.845+171.666C271.642+147.133+283.972+124.281+300.195+104.295C316.568+84.0496+336.498+66.9599+359.005+53.8658C381.803+40.7035+406.877+31.9543+432.915+28.0758C439.435+27.0758+446.005+26.4458+452.585+26.0758C454.235+25.9658+455.885+25.8958+457.535+25.8458C459.185+25.7958+460.825+25.7458+462.445+25.7458C465.695+25.7458+468.945+25.6658+472.205+25.7458C485.32+26.0032+498.398+27.2535+511.325+29.4858C537.325+33.9358+563.005+43.3158+585.685+58.0058C608.365+72.6958+627.615+92.5558+642.115+115.115C649.322+126.383+655.484+138.286+660.525+150.675C665.548+162.946+669.636+175.579+672.755+188.465C674.335+194.885+675.668+201.359+676.755+207.885C677.835+214.405+678.675+220.965+679.265+227.615C679.555+230.945+679.775+234.285+679.905+237.735C680.015+241.665+680.015+244.045+680.145+246.975C680.416+252.702+680.99+258.41+681.865+264.075C682.265+266.925+682.815+269.765+683.355+272.605C683.895+275.445+684.565+278.265+685.275+281.085C686.665+286.715+688.275+292.325+690.145+297.835C692.015+303.345+694.145+308.835+696.455+314.145C698.765+319.455+701.375+324.715+704.135+329.725C706.857+334.739+709.862+339.593+713.135+344.265C719.573+353.536+727.179+361.939+735.765+369.265C740.022+372.945+744.526+376.33+749.245+379.395C753.986+382.477+758.912+385.266+763.995+387.745C769.15+390.211+774.442+392.381+779.845+394.245C782.545+395.245+785.315+396.045+788.065+396.905C790.815+397.765+793.645+398.455+796.495+399.095C802.155+400.415+807.905+401.515+813.745+402.295C819.585+403.075+825.465+403.705+831.405+404.065C834.405+404.295+837.405+404.355+840.335+404.485L844.715+404.555L849.085+404.505C854.896+404.381+860.697+403.953+866.465+403.226C872.273+402.492+878.038+401.447+883.735+400.096C906.852+394.601+928.562+384.323+947.465+369.926C966.708+355.272+982.71+336.795+994.465+315.656C1006.49+293.973+1013.95+270.059+1016.4+245.386Z" fill-rule="evenodd" fill="#ffffff" opacity="1"/>
<path d="M985.365+105.096C946.465+66.1958+895.075+44.7858+840.655+44.7858C801.77+44.7679+763.684+55.826+730.855+76.6658C724.353+81.1022+722.535+89.8917+726.742+96.5437C730.949+103.196+739.67+105.319+746.465+101.346C774.612+83.4702+807.27+73.9833+840.615+73.9958C936.075+73.9958+1014.01+150.476+1016.36+245.386C1016.4+246.859+1016.42+248.329+1016.42+249.796C1016.42+346.726+937.555+425.596+840.615+425.596C805.915+425.596+770.525+418.736+740.945+399.826C704.945+376.826+681.815+337.046+671.565+296.246C664.215+267.006+666.495+236.516+659.735+207.196C655.075+186.946+649.015+167.356+639.665+148.716C616.175+101.846+565.945+45.9258+460.235+45.9258C405.815+45.9258+354.425+67.3458+315.535+106.246C277.695+144.086+256.395+193.756+255.275+246.536C256.395+299.316+277.695+348.986+315.535+386.826C354.425+425.716+405.815+447.136+460.235+447.136C500.19+447.169+539.281+435.494+572.675+413.556C577.18+410.758+579.817+405.739+579.562+400.442C579.307+395.144+576.202+390.401+571.449+388.048C566.695+385.696+561.041+386.105+556.675+389.116C528.035+407.94+494.506+417.956+460.235+417.926C364.775+417.926+286.845+341.476+284.465+246.576C284.425+245.109+284.405+243.639+284.405+242.166C284.405+145.226+363.275+66.3658+460.205+66.3658C532.725+66.3658+584.205+95.2258+613.125+152.136C622.737+171.412+629.388+192.027+632.855+213.286C636.675+235.746+635.855+258.626+640.245+281.056C644.598+303.277+652.001+324.791+662.245+344.985C667.417+355.158+673.494+364.844+680.405+373.926C698.056+397.209+721.24+415.718+747.855+427.776C776.905+440.886+808.935+446.026+840.655+446.026C895.075+446.026+946.465+424.606+985.365+385.716C1023.21+347.876+1044.5+298.206+1045.62+245.426C1044.47+192.606+1023.21+142.926+985.365+105.096Z" fill-rule="evenodd" fill="#ffffff" opacity="1"/>
<path d="M1186.25+420.768L1186.25+43.3027C1186.25+26.6148+1196.81+17.9927+1217.97+17.9927C1238.35+17.9927+1248.17+26.6148+1248.17+43.3027L1248.17+182.09C1274.6+165.442+1301.7+159.244+1334.29+159.244C1414.88+159.723+1479.97+213.1+1480.25+278.92L1480.25+420.808C1480.25+434.992+1469.7+446.117+1449.31+446.117C1428.93+446.117+1417.58+434.992+1417.58+420.808L1417.58+278.881C1417.58+240.721+1379.7+209.784+1332.98+209.784C1286.24+209.784+1248.38+240.721+1248.38+278.881L1248.38+420.768C1248.38+434.952+1238.64+446.078+1218.16+446.078C1209.81+446.217+1201.73+443.618+1195.73+438.864C1189.74+434.109+1186.33+427.593+1186.25+420.768Z" fill-rule="evenodd" fill="#ffffff" opacity="1"/>
<path d="M1801.84+184.713L1801.84+420.967C1801.93+427.702+1798.69+434.184+1792.86+438.947C1787.02+443.71+1779.09+446.352+1770.85+446.277C1750.46+446.277+1739.91+436.383+1739.12+422.199C1712.71+437.615+1684.79+446.277+1655.29+446.277C1574.25+446.256+1508.45+392.783+1508.03+326.601L1508.03+184.713C1507.97+177.882+1511.32+171.326+1517.3+166.553C1523.28+161.779+1531.39+159.198+1539.75+159.403C1560.13+159.403+1570.69+168.065+1570.69+184.713L1570.69+326.601C1570.69+364.586+1608.39+395.379+1654.9+395.379C1701.41+395.379+1739.12+364.586+1739.12+326.601L1739.12+184.713C1739.12+168.065+1749.74+159.403+1770.85+159.403C1779.09+159.328+1787.02+161.97+1792.86+166.733C1798.69+171.496+1801.93+177.978+1801.84+184.713Z" fill-rule="evenodd" fill="#ffffff" opacity="1"/>
<path d="M1839.6+420.768L1839.6+184.713C1839.5+177.978+1842.74+171.496+1848.57+166.733C1854.4+161.97+1862.33+159.328+1870.57+159.403C1890.03+159.403+1900.79+167.349+1901.53+182.846C1925.82+167.675+1955.55+159.439+1986.13+159.403C2025.1+159.308+2062.5+171.867+2090.13+194.315C2117.76+216.762+2133.31+247.255+2133.4+279.079L2133.4+420.967C2133.4+435.099+2119.37+446.555+2102.05+446.555C2084.77+446.555+2070.73+435.099+2070.73+420.967L2070.73+278.881C2070.73+240.721+2032.86+209.784+1986.13+209.784C1939.41+209.784+1901.53+240.721+1901.53+278.881L1901.53+420.768C1901.74+427.526+1898.55+434.061+1892.69+438.845C1886.86+443.629+1878.85+446.244+1870.57+446.078C1862.33+446.154+1854.4+443.51+1848.57+438.748C1842.74+433.985+1839.5+427.504+1839.6+420.768Z" fill-rule="evenodd" fill="#ffffff" opacity="1"/>
<path d="M2160.58+326.401L2160.58+278.722C2160.79+212.442+2226.75+158.848+2307.91+159.046C2337.1+159.046+2365.33+167.707+2391.73+183.124L2391.73+43.2632C2391.73+26.5752+2402.29+17.9531+2423.45+17.9531C2443.83+17.9531+2454.45+26.5752+2454.45+43.2632L2454.45+326.401C2454.45+392.673+2388.67+446.396+2307.52+446.396C2226.37+446.396+2160.58+392.673+2160.58+326.401ZM2223.31+326.401C2223.31+364.386+2261.01+395.179+2307.52+395.179C2354.03+395.179+2391.73+364.386+2391.73+326.401L2391.73+278.722C2391.73+240.737+2354.03+209.944+2307.52+209.944C2261.01+209.944+2223.31+240.737+2223.31+278.722L2223.31+326.401Z" fill-rule="evenodd" fill="#ffffff" opacity="1"/>
<path d="M2736.14+223.374L2736.92+222.737C2722.57+237.558+2703.7+235.69+2691.57+227.704C2676.69+217.282+2657.67+211.633+2638.06+211.811C2591.89+211.919+2554.45+242.373+2554.14+280.073L2554.14+420.728C2554.36+427.493+2551.15+434.035+2545.3+438.82C2539.44+443.605+2531.43+446.215+2523.14+446.039C2502.03+446.039+2491.42+437.377+2491.42+420.728L2491.42+185.746C2491.42+169.098+2502.03+160.436+2523.14+160.436C2538.62+160.318+2551.86+169.54+2554.14+182.051C2608.19+151.081+2680.97+153.606+2731.62+188.21C2743.55+197.41+2745.47+212.348+2736.14+223.374Z" fill-rule="evenodd" fill="#ffffff" opacity="1"/>
<path d="M2779.19+373.286C2772.22+358.313+2768.63+342.424+2768.64+326.401L2768.64+278.722C2768.36+230.582+2803.92+187.131+2858.51+168.939L2857.77+168.939C2875.79+162.236+2895.38+158.858+2915.19+159.046C2974.01+159.158+3027+188.107+3049.6+232.473C3058.01+246.901+3062.16+262.746+3061.67+278.722C3061.63+285.606+3058.39+292.221+3052.61+297.238C3046.59+301.7+3038.86+304.313+3030.73+304.628L2831.26+304.628L2831.26+326.243C2831.26+355.209+2851.64+377.896+2882.63+389.815C2892.93+393.614+2904.14+395.488+2915.42+395.299C2937.91+395.027+2959.35+387.499+2975.07+374.36C2982.65+368.094+2988.79+360.774+2993.22+352.744C2999.25+342.891+3002.27+336.852+3022.41+336.852C3039.77+336.852+3053.4+344.242+3053.4+360.89C3053.37+364.134+3052.33+367.32+3050.39+370.148C3043.21+385.485+3032.45+399.524+3018.65+411.471C2991.3+433.935+2953.98+446.405+2915.19+446.039C2856.22+445.882+2802.92+417.364+2779.19+373.286ZM2840.41+249.28L2837.39+254.207L2993.07+254.207C2978.48+227.704+2949.28+210.5+2915.22+210.5C2882.68+210.421+2855.49+225.241+2840.41+249.28Z" fill-rule="evenodd" fill="#ffffff" opacity="1"/>
<path d="M3086.62+326.401L3086.62+278.722C3086.71+246.898+3102.26+216.403+3129.89+193.956C3157.51+171.51+3194.93+158.951+3233.9+159.046C3263.38+159.046+3291.31+167.707+3317.72+183.124L3317.72+43.2632C3317.72+26.5752+3328.33+17.9531+3349.45+17.9531C3369.84+17.9531+3380.43+26.5752+3380.43+43.2632L3380.43+326.401C3378.98+391.811+3313.64+444.212+3233.53+444.212C3153.43+444.212+3088.09+391.811+3086.62+326.401ZM3149.28+326.401C3149.28+364.386+3187+395.179+3233.5+395.179C3280.02+395.179+3317.72+364.386+3317.72+326.401L3317.72+278.722C3317.72+240.737+3280.02+209.944+3233.5+209.944C3187+209.944+3149.28+240.737+3149.28+278.722L3149.28+326.401Z" fill-rule="evenodd" fill="#ffffff" opacity="1"/>
</g>
</svg>
