<svg xmlns="http://www.w3.org/2000/svg" width="19" height="19" viewBox="0 0 19 19">
    <g fill="none" fill-rule="evenodd">
        <g fill="#FFF">
            <g>
                <path d="M9.45 0c2.61 0 4.972 1.058 6.682 2.768C17.842 4.478 18.9 6.84 18.9 9.45c0 2.61-1.058 4.972-2.768 6.682-1.71 1.71-4.073 2.768-6.682 2.768-2.61 0-4.972-1.058-6.682-2.768C1.058 14.422 0 12.06 0 9.45c0-2.61 1.058-4.972 2.768-6.682C4.478 1.058 6.84 0 9.45 0" opacity=".25" transform="translate(-863 -212) translate(863 212)"/>
                <g stroke="#58C788" stroke-width=".748">
                    <g>
                        <path d="M7.585 10.283c.598-.48.959-.783 1.082-.907.076-.096.2-.151.33-.136.19.023.32.193.289.38-.097.573-1.764 2.71-2.406 3.235-.547.447-1.145.876-1.764.889-.427.008-.811-.154-1.086-.421-.275-.268-.441-.642-.432-1.058l.074-3.715c.005-.276-.214-.504-.49-.51-.098-.002-.193.025-.276.077-.788.495-1.25.81-1.382.944-.077.096-.201.151-.33.136-.191-.023-.32-.193-.29-.38.098-.573 1.637-2.263 2.259-2.754.71-.56 1.527-.853 2.146-.865.427-.009.811.153 1.086.42.275.268.441.643.432 1.058l-.055 3.209c-.005.276.215.504.491.508.117.002.231-.037.322-.11z" transform="translate(-863 -212) translate(863 212) translate(3.2 1.1) translate(.8 .9) rotate(12 5.095 9.47)"/>
                        <path d="M6.633.9c.457-.01.866.166 1.16.458.293.293.47.702.46 1.159-.01.456-.203.874-.508 1.18-.306.305-.723.5-1.18.51-.456.01-.865-.165-1.159-.458-.293-.292-.47-.702-.46-1.158.01-.457.203-.874.508-1.18.306-.306.723-.5 1.18-.51" transform="translate(-863 -212) translate(863 212) translate(3.2 1.1) translate(.8 .9) rotate(12 6.6 2.554)"/>
                    </g>
                </g>
            </g>
        </g>
    </g>
</svg>
