<svg xmlns="http://www.w3.org/2000/svg" width="33" height="32" viewBox="0 0 33 32">
    <g fill="none" fill-rule="evenodd">
        <g>
            <g>
                <path fill="#121B23" d="M15.612 0C6.994 0 0 6.994 0 15.612c0 8.617 6.994 15.612 15.612 15.612s15.612-6.995 15.612-15.612C31.224 6.994 24.23 0 15.612 0z" transform="translate(-147 -961) translate(147.6 961)"/>
                <path fill="#647686" d="M12.396 21.424H9.984v-7.719c0-.023 0-.046.023-.046h2.412c-.023 2.573-.023 5.169-.023 7.765M10.398 12.373c-.368-.253-.667-.781-.598-1.401.07-.46.39-.85.735-1.034.115-.069.276-.115.46-.115.919-.115 1.608.529 1.608 1.402-.023 1.056-1.24 1.791-2.205 1.148M21.446 21.424h-2.412v-2.78c0-1.171.161-2.527-.643-2.94-.39-.207-.919-.138-1.263 0-.873.39-.804 1.63-.804 2.986v2.734h-2.412v-7.765h2.32v1.057c.092-.069.115-.16.184-.253.413-.55 1.149-1.01 2.09-1.01 1.195 0 2.045.413 2.48 1.171.46.804.46 1.93.46 3.193v3.607z" transform="translate(-147 -961) translate(147.6 961)"/>
            </g>
        </g>
    </g>
</svg>
