<svg xmlns="http://www.w3.org/2000/svg" width="32" height="32" viewBox="0 0 32 32">
    <g fill="none" fill-rule="evenodd">
        <path fill="#25C068" d="M15.992 0C7.164 0 0 7.164 0 15.992c0 8.827 7.164 15.991 15.992 15.991 8.827 0 15.991-7.164 15.991-15.991C31.983 7.164 24.82 0 15.992 0z"/>
        <path fill="#FFF" d="M12.698 21.945h-2.471v-7.906c0-.024 0-.047.024-.047h2.47c-.023 2.635-.023 5.294-.023 7.953M10.65 12.674c-.376-.259-.682-.8-.612-1.435.071-.47.4-.87.754-1.06.117-.07.282-.117.47-.117.941-.117 1.647.541 1.647 1.436-.023 1.082-1.27 1.835-2.259 1.176M21.968 21.945h-2.47v-2.848c0-1.2.164-2.588-.66-3.011-.4-.212-.94-.141-1.293 0-.895.4-.824 1.67-.824 3.059v2.8h-2.47v-7.953h2.376v1.082c.094-.07.118-.165.188-.259.424-.564 1.177-1.035 2.141-1.035 1.224 0 2.095.424 2.541 1.2.471.823.471 1.976.471 3.27v3.695z"/>
    </g>
</svg>
