<svg xmlns="http://www.w3.org/2000/svg" width="94" height="24" viewBox="0 0 94 24">
    <g fill="none" fill-rule="evenodd">
        <g fill="#FFF">
            <g transform="translate(-24.000000, -507.000000) translate(25.101913, 508.000000)">
                <path fill-rule="nonzero" d="M31.698 16.546L39.704 16.546 39.704 14.469 34.072 14.469 34.072 2.838 31.698 2.838zM43.88 6.323h-2.304v10.223h2.304V6.323zm-1.14-1.685c.768 0 1.443-.646 1.443-1.43 0-.785-.675-1.408-1.443-1.408-.792 0-1.467.623-1.467 1.408 0 .784.675 1.43 1.467 1.43zM55.695 6.854c-1.047-.439-2.49-.762-3.91-.762-3.654 0-5.934 2.077-5.934 5.354 0 3.392 2.28 5.33 5.608 5.33.815 0 1.56-.16 1.955-.322V20.7h2.281V6.854zm-2.28 7.615c-.583.208-1.071.323-1.816.323-2.071 0-3.421-1.315-3.421-3.346 0-2.123 1.373-3.323 3.607-3.323.629 0 1.164.115 1.63.254v6.092zM66.773 6.323h-2.28v8.423c-.605.092-1.257.139-1.769.139-1.513 0-2.444-.554-2.444-2.077V6.323H58v6.646c0 2.862 1.815 3.808 4.77 3.808 1.21 0 2.793-.162 4.003-.462V6.323zM72.03 6.323h-2.303v10.223h2.304V6.323zm-1.14-1.685c.768 0 1.443-.646 1.443-1.43 0-.785-.675-1.408-1.443-1.408-.791 0-1.466.623-1.466 1.408 0 .784.675 1.43 1.466 1.43zM73.777 8.238h1.56v5.377c0 2.331 1.42 3.162 3.095 3.162.977 0 1.815-.208 2.49-.554V14.17c-.628.37-1.21.577-1.885.577-.884 0-1.42-.415-1.42-1.638v-4.87h2.933V6.323h-2.932V3.831h-2.281v2.492h-1.56v1.915zM83.806 6.323L81.339 6.323 85.598 17.008 84.155 20.7 86.412 20.7 91.998 6.323 89.624 6.323 86.738 14.377z"/>
                <circle cx="10.632" cy="10.614" r="10.114" fill-rule="nonzero" stroke="#000"/>
                <path fill-rule="nonzero" stroke="#000" stroke-width="2" d="M10.574 21.227C.018 21.227-4.148 7.34 5.176 1.487c-1.11 11.608 4.79 11.864 10.263 11.608 9.173-.43 9.179 8.132 9.179 8.132H10.574z"/>
                <path stroke="#000" stroke-width="2" d="M20.664 14.086c-1.597 4.092-5.524 7.019-10.15 7.15.109.002.218.004.328.004h13.956s-.004-5.02-4.134-7.154z"/>
            </g>
        </g>
    </g>
</svg>
