<svg xmlns="http://www.w3.org/2000/svg" width="128" height="18" viewBox="0 0 128 18">
    <g fill="none" fill-rule="evenodd">
        <g fill="#4CA89B">
            <g>
                <g>
                    <g>
                        <path fill-rule="nonzero" d="M2.706 3.841v13.975H0V1.581C0 .28 1.487-.463 2.528.321L15.38 9.992c.396.298.63.765.63 1.261v6.562h-2.706v-6L2.706 3.842zM46.347 2.482c-1.063 0-1.924.861-1.924 1.924v12.158h2.498V6.03l3.366 5.494c.384.626 1.065 1.007 1.798 1.007.732 0 1.412-.38 1.796-1.003l3.385-5.498v10.534h2.498V4.316c0-1.013-.821-1.834-1.834-1.834-.65 0-1.252.345-1.582.906l-4.215 7.18-4.122-7.125c-.343-.595-.978-.96-1.664-.96z" transform="translate(-858 -493) translate(820 442) translate(38 48) translate(0 3)"/>
                        <path d="M71.297 2.482c-.825 0-1.567.504-1.87 1.271L64.35 16.564h2.418l1.575-3.686h5.748l1.575 3.686h2.567l-5.066-12.81c-.304-.767-1.045-1.272-1.871-1.272zm-.079 2.884l2.002 5.223h-4.014l2.012-5.223z" transform="translate(-858 -493) translate(820 442) translate(38 48) translate(0 3)"/>
                        <path fill-rule="nonzero" d="M84.991 8.934l6.09-6.12c.213-.212.5-.332.8-.332 1.007 0 1.51 1.218.797 1.928l-4.833 4.811 7.125 7.343h-3.24L84.99 9.746v6.818h-2.497V3.731c0-.69.559-1.249 1.249-1.249.69 0 1.248.56 1.248 1.25v5.202zM99.389 14.31c0 1.244 1.01 2.254 2.255 2.254h6.475c.635 0 1.15-.515 1.15-1.15 0-.634-.515-1.149-1.15-1.149h-6.223V10.46h5.678c.635 0 1.15-.515 1.15-1.15 0-.635-.515-1.15-1.15-1.15h-5.678V4.783h6.223c.635 0 1.15-.515 1.15-1.15 0-.635-.515-1.15-1.15-1.15h-6.475c-1.246 0-2.255 1.01-2.255 2.255v9.572z" transform="translate(-858 -493) translate(820 442) translate(38 48) translate(0 3)"/>
                        <path d="M125.866 6.516c0 .449-.056.878-.168 1.288-.106.403-.278.793-.516 1.17-.23.376-.551.713-.96 1.01-.404.297-.883.529-1.438.694l4.252 5.886h-3.25l-3.945-5.46h-2.388v5.46h-2.497V4.737c0-1.245 1.01-2.255 2.255-2.255h3.74c.297 0 .568.01.813.03.25.013.551.053.901.12.357.059.671.141.942.247.277.106.561.26.852.466.298.204.542.446.733.723.199.27.36.618.486 1.04.126.417.188.886.188 1.408zm-8.413-1.744v4.033h2.299c.396 0 .747-.013 1.05-.04.304-.026.618-.08.942-.158.324-.086.588-.202.793-.347.211-.146.383-.347.515-.605.139-.257.208-.561.208-.911 0-1.315-1.014-1.972-3.042-1.972h-2.765z" transform="translate(-858 -493) translate(820 442) translate(38 48) translate(0 3)"/>
                        <path fill-rule="nonzero" d="M31.345 17.816V3.841l-10.599 7.976v6H18.04v-6.563c0-.496.233-.963.63-1.261L31.522.32c1.04-.783 2.527-.04 2.527 1.261v16.235h-2.705z" transform="translate(-858 -493) translate(820 442) translate(38 48) translate(0 3)"/>
                    </g>
                </g>
            </g>
        </g>
    </g>
</svg>
