<svg xmlns="http://www.w3.org/2000/svg" width="106" height="15" viewBox="0 0 106 15">
    <g fill="none" fill-rule="evenodd">
        <g fill="#FFF">
            <g>
                <g>
                    <path fill-rule="nonzero" d="M2.252 3.197v11.632H0V1.316C0 .233 1.238-.385 2.104.266l10.698 8.051c.33.248.524.637.524 1.05v5.462h-2.252V9.835L2.252 3.197zM38.575 2.066c-.884 0-1.6.717-1.6 1.6v10.12h2.078V5.02l2.802 4.573c.32.52.886.838 1.496.838s1.175-.316 1.495-.835l2.818-4.576v8.768h2.078V3.592c0-.842-.683-1.526-1.526-1.526-.541 0-1.042.287-1.316.754L43.39 8.797l-3.43-5.932c-.286-.494-.815-.799-1.386-.799z" transform="translate(-28 -415) translate(-15) translate(43 415)"/>
                    <path d="M59.342 2.066c-.687 0-1.304.42-1.557 1.058L53.56 13.787h2.013l1.311-3.069h4.784l1.311 3.069h2.137L60.899 3.125c-.253-.639-.87-1.059-1.557-1.059zm-.066 2.4l1.666 4.347h-3.34l1.674-4.347z" transform="translate(-28 -415) translate(-15) translate(43 415)"/>
                    <path fill-rule="nonzero" d="M70.74 7.436l5.069-5.093c.176-.177.416-.277.666-.277.837 0 1.256 1.014.662 1.605l-4.022 4.004 5.93 6.112h-2.697L70.74 8.112v5.675H68.66V3.105c0-.574.465-1.039 1.04-1.039.574 0 1.039.465 1.039 1.04v4.33zM82.723 11.91c0 1.036.84 1.877 1.877 1.877h5.39c.528 0 .956-.429.956-.957 0-.529-.428-.957-.956-.957h-5.18V8.706h4.726c.528 0 .957-.429.957-.957s-.429-.957-.957-.957H84.81V3.98h5.18c.528 0 .956-.429.956-.957s-.428-.957-.956-.957H84.6c-1.037 0-1.877.84-1.877 1.877v7.967z" transform="translate(-28 -415) translate(-15) translate(43 415)"/>
                    <path d="M104.76 5.423c0 .374-.046.731-.14 1.072-.087.336-.23.66-.428.974-.193.313-.46.593-.8.84-.336.248-.735.44-1.197.578l3.539 4.9h-2.705l-3.283-4.545h-1.988v4.545H95.68V3.943c0-1.037.84-1.877 1.877-1.877h3.113c.247 0 .473.008.676.025.209.01.46.044.75.099.297.05.559.118.784.206.231.088.467.217.71.388.247.17.45.37.61.602.165.225.3.514.404.866.104.346.157.737.157 1.171zm-7.002-1.452v3.357h1.914c.33 0 .621-.01.874-.033.253-.022.514-.066.783-.132.27-.071.49-.167.66-.288.176-.121.32-.289.43-.503.115-.215.172-.468.172-.76 0-1.093-.844-1.64-2.532-1.64h-2.3z" transform="translate(-28 -415) translate(-15) translate(43 415)"/>
                    <path fill-rule="nonzero" d="M26.089 14.829V3.197l-8.822 6.638v4.994h-2.252V9.367c0-.413.194-.802.524-1.05L26.237.267c.866-.652 2.104-.034 2.104 1.05v13.512h-2.252z" transform="translate(-28 -415) translate(-15) translate(43 415)"/>
                </g>
            </g>
        </g>
    </g>
</svg>
