<svg xmlns="http://www.w3.org/2000/svg" width="155" height="22" viewBox="0 0 155 22">
    <g fill="none" fill-rule="evenodd">
        <g fill="#000">
            <g>
                <g>
                    <path fill-rule="nonzero" d="M3.3 4.684v17.043H0V1.93C0 .34 1.814-.564 3.083.39l15.675 11.796c.483.364.767.934.767 1.539v8.002h-3.3v-7.316L3.3 4.684zM56.52 3.027c-1.295 0-2.345 1.05-2.345 2.346V20.2h3.045V7.354l4.106 6.7c.468.763 1.298 1.228 2.193 1.228.892 0 1.72-.463 2.189-1.223l4.13-6.705V20.2h3.044V5.264c0-1.235-1-2.237-2.236-2.237-.793 0-1.527.42-1.928 1.105l-5.141 8.757-5.027-8.69c-.419-.725-1.193-1.172-2.03-1.172z" transform="translate(-482 -52) translate(-15) translate(497 52)"/>
                    <path d="M86.947 3.027c-1.006 0-1.91.615-2.28 1.55L78.476 20.2h2.948l1.922-4.495h7.009l1.921 4.495h3.13L89.23 4.58c-.37-.937-1.275-1.552-2.282-1.552zm-.096 3.517l2.442 6.369h-4.895l2.453-6.369z" transform="translate(-482 -52) translate(-15) translate(497 52)"/>
                    <path fill-rule="nonzero" d="M103.648 10.895l7.428-7.462c.258-.26.609-.406.975-.406 1.227 0 1.84 1.485.97 2.351l-5.893 5.867 8.69 8.955h-3.952l-8.218-8.314V20.2h-3.046V4.55c0-.84.682-1.523 1.523-1.523.841 0 1.523.682 1.523 1.523v6.345zM121.206 17.45c0 1.519 1.231 2.75 2.75 2.75h7.897c.774 0 1.402-.628 1.402-1.402 0-.774-.628-1.402-1.402-1.402h-7.59v-4.64h6.925c.774 0 1.402-.628 1.402-1.402 0-.774-.628-1.402-1.402-1.402h-6.925v-4.12h7.59c.774 0 1.402-.629 1.402-1.403s-.628-1.402-1.402-1.402h-7.897c-1.519 0-2.75 1.232-2.75 2.75V17.45z" transform="translate(-482 -52) translate(-15) translate(497 52)"/>
                    <path d="M153.495 7.946c0 .548-.068 1.071-.205 1.571-.129.491-.338.967-.628 1.426-.282.46-.673.87-1.173 1.233-.491.362-1.075.644-1.752.846l5.185 7.178h-3.964l-4.81-6.659h-2.913v6.66h-3.045V5.776c0-1.518 1.231-2.75 2.75-2.75h4.561c.363 0 .693.012.991.037.306.016.673.064 1.1.145.435.072.818.173 1.148.302.338.129.685.318 1.04.568.362.25.66.544.894.882.241.33.439.753.592 1.269.153.507.23 1.08.23 1.716zm-10.26-2.127v4.919h2.804c.483 0 .91-.017 1.281-.049.37-.032.753-.096 1.148-.193.395-.105.717-.246.967-.423.258-.177.467-.423.628-.737.17-.314.254-.685.254-1.112 0-1.603-1.236-2.405-3.71-2.405h-3.372z" transform="translate(-482 -52) translate(-15) translate(497 52)"/>
                    <path fill-rule="nonzero" d="M38.225 21.727V4.684L25.3 14.411v7.316H22v-8.002c0-.605.284-1.175.767-1.539L38.443.39c1.268-.954 3.082-.05 3.082 1.539v19.798h-3.3z" transform="translate(-482 -52) translate(-15) translate(497 52)"/>
                </g>
            </g>
        </g>
    </g>
</svg>
