<svg xmlns="http://www.w3.org/2000/svg" width="128" height="19" viewBox="0 0 128 19">
    <g fill="none" fill-rule="evenodd">
        <g fill="#180928">
            <g>
                <g>
                    <path fill-rule="nonzero" d="M2.703 3.836v13.959H0V1.579C0 .28 1.486-.462 2.525.32l12.837 9.662c.396.298.629.764.629 1.26v6.554h-2.703v-5.993L2.703 3.836zM46.29 2.48c-1.06 0-1.92.86-1.92 1.92v12.144h2.493V6.023l3.363 5.487c.383.625 1.063 1.006 1.796 1.006.73 0 1.41-.38 1.793-1.002l3.382-5.491v10.52h2.494V4.312c0-1.012-.82-1.832-1.832-1.832-.65 0-1.25.345-1.58.905l-4.21 7.172-4.116-7.118c-.344-.593-.977-.959-1.663-.959z" transform="translate(-663 -385) translate(487 378) translate(176.4 7.2)"/>
                    <path d="M71.21 2.48c-.824 0-1.565.503-1.868 1.269l-5.07 12.795h2.415l1.574-3.682h5.74l1.574 3.682h2.564L73.079 3.75c-.304-.767-1.044-1.27-1.87-1.27zm-.079 2.88l2 5.216h-4.009l2.01-5.216z" transform="translate(-663 -385) translate(487 378) translate(176.4 7.2)"/>
                    <path fill-rule="nonzero" d="M84.888 8.923L90.97 2.81c.211-.212.499-.332.799-.332 1.004 0 1.507 1.217.795 1.926L87.738 9.21l7.116 7.334h-3.236l-6.73-6.81v6.81h-2.495V3.727c0-.69.559-1.248 1.247-1.248.69 0 1.248.559 1.248 1.248v5.196zM99.268 14.292c0 1.244 1.008 2.252 2.252 2.252h6.468c.634 0 1.147-.514 1.147-1.148 0-.634-.513-1.148-1.147-1.148h-6.216v-3.801h5.671c.634 0 1.148-.514 1.148-1.148 0-.634-.514-1.148-1.148-1.148h-5.671V4.776h6.216c.634 0 1.147-.514 1.147-1.148 0-.635-.513-1.149-1.147-1.149h-6.468c-1.244 0-2.252 1.009-2.252 2.253v9.56z" transform="translate(-663 -385) translate(487 378) translate(176.4 7.2)"/>
                    <path d="M125.713 6.508c0 .448-.056.877-.169 1.286-.105.403-.277.792-.514 1.168-.231.376-.551.713-.96 1.01-.403.297-.881.528-1.435.693l4.246 5.879h-3.247l-3.939-5.454h-2.385v5.454h-2.494V4.732c0-1.244 1.008-2.253 2.252-2.253h3.736c.297 0 .567.01.811.03.25.013.551.053.9.119.357.06.67.142.941.247.277.106.561.261.851.466.297.204.542.445.733.722.198.27.36.617.485 1.04.125.415.188.883.188 1.405zm-8.403-1.742v4.028h2.296c.396 0 .746-.013 1.05-.04.303-.026.616-.079.94-.158.323-.086.587-.201.791-.346.211-.145.383-.347.515-.604.138-.257.208-.56.208-.91 0-1.314-1.013-1.97-3.039-1.97h-2.761z" transform="translate(-663 -385) translate(487 378) translate(176.4 7.2)"/>
                    <path fill-rule="nonzero" d="M31.306 17.795V3.836l-10.585 7.966v5.993h-2.703V11.24c0-.495.233-.961.629-1.26L31.484.32c1.04-.782 2.525-.04 2.525 1.26v16.215h-2.703z" transform="translate(-663 -385) translate(487 378) translate(176.4 7.2)"/>
                </g>
            </g>
        </g>
    </g>
</svg>
