<svg xmlns="http://www.w3.org/2000/svg" width="32" height="32" viewBox="0 0 32 32">
    <g fill="none" fill-rule="evenodd">
        <g>
            <g>
                <path fill="#121B23" d="M15.612 0C6.994 0 0 6.994 0 15.612c0 8.617 6.994 15.612 15.612 15.612s15.612-6.995 15.612-15.612C31.224 6.994 24.23 0 15.612 0z" transform="translate(-1208 -679) translate(1208 679)"/>
                <path fill="#647686" d="M9.66 12.448c.018-.186-.048-.369-.176-.494l-1.308-1.7V10h4.06l3.137 7.429L18.13 10H22v.254l-1.118 1.157c-.096.08-.144.21-.124.339v8.5c-.02.13.028.26.124.34l1.092 1.156V22h-5.49v-.254l1.13-1.185c.112-.12.112-.155.112-.339v-6.871l-3.144 8.62h-.425l-3.66-8.62v5.778c-.03.243.044.487.202.663l1.471 1.926v.254H8v-.254l1.47-1.926c.158-.176.228-.422.19-.663v-6.681z" transform="translate(-1208 -679) translate(1208 679)"/>
            </g>
        </g>
    </g>
</svg>
