<svg xmlns="http://www.w3.org/2000/svg" width="104" height="16" viewBox="0 0 104 16">
    <g fill="none" fill-rule="evenodd">
        <g fill="#180928">
            <g>
                <g>
                    <path fill-rule="nonzero" d="M2.19 3.107v11.307H0V1.279C0 .226 1.203-.374 2.045.26l10.399 7.825c.32.242.509.62.509 1.02v5.31h-2.19V9.56L2.19 3.107zM37.495 2.008c-.86 0-1.556.697-1.556 1.556v9.837h2.02V4.878l2.724 4.445c.31.506.861.815 1.455.815.592 0 1.141-.307 1.452-.812l2.74-4.448v8.523h2.02V3.49c0-.818-.665-1.483-1.484-1.483-.526 0-1.013.28-1.28.733l-3.41 5.81-3.334-5.766c-.278-.48-.792-.777-1.347-.777z" transform="translate(-349 -235) translate(349 230) translate(.324 5.832)"/>
                    <path d="M57.68 2.008c-.668 0-1.267.408-1.513 1.029L52.06 13.4h1.956l1.274-2.983h4.65l1.275 2.983h2.076L59.194 3.037c-.246-.62-.846-1.029-1.514-1.029zm-.064 2.333l1.62 4.225h-3.247l1.627-4.225z" transform="translate(-349 -235) translate(349 230) translate(.324 5.832)"/>
                    <path fill-rule="nonzero" d="M68.76 7.227l4.926-4.95c.172-.172.404-.269.647-.269.814 0 1.221.985.644 1.56l-3.91 3.892 5.765 5.94h-2.621l-5.452-5.515V13.4h-2.02V3.018c0-.557.452-1.01 1.01-1.01s1.01.453 1.01 1.01v4.21zM80.407 11.576c0 1.008.817 1.825 1.824 1.825h5.239c.513 0 .93-.417.93-.93 0-.514-.417-.93-.93-.93h-5.035V8.462h4.594c.513 0 .93-.416.93-.93s-.417-.93-.93-.93h-4.594V3.868h5.035c.513 0 .93-.416.93-.93 0-.513-.417-.93-.93-.93H82.23c-1.007 0-1.824.817-1.824 1.825v7.743z" transform="translate(-349 -235) translate(349 230) translate(.324 5.832)"/>
                    <path d="M101.827 5.271c0 .364-.045.711-.136 1.042-.085.327-.224.642-.417.946-.187.305-.446.578-.778.818-.326.24-.713.428-1.162.561l3.44 4.763h-2.63l-3.19-4.418H95.02v4.418H93V3.833c0-1.008.816-1.825 1.824-1.825h3.026c.24 0 .46.008.657.024.203.011.447.043.73.097.288.048.542.114.762.2.224.086.454.211.689.377.24.166.438.36.593.585.16.22.292.5.393.842.102.337.152.716.152 1.138zm-6.806-1.41v3.262h1.86c.32 0 .604-.01.85-.032.246-.021.5-.064.761-.128.262-.07.476-.163.642-.28.17-.118.31-.281.417-.49.112-.208.168-.454.168-.737 0-1.064-.82-1.596-2.461-1.596H95.02z" transform="translate(-349 -235) translate(349 230) translate(.324 5.832)"/>
                    <path fill-rule="nonzero" d="M25.358 14.414V3.107L16.784 9.56v4.854h-2.19v-5.31c0-.4.19-.778.51-1.02L25.502.26c.842-.633 2.045-.033 2.045 1.02v13.135h-2.189z" transform="translate(-349 -235) translate(349 230) translate(.324 5.832)"/>
                </g>
            </g>
        </g>
    </g>
</svg>
