<svg xmlns="http://www.w3.org/2000/svg" width="33" height="32" viewBox="0 0 33 32">
    <g fill="none" fill-rule="evenodd">
        <g>
            <g>
                <path fill="#121B23" d="M15.612 0C6.994 0 0 6.994 0 15.612c0 8.617 6.994 15.612 15.612 15.612s15.612-6.995 15.612-15.612C31.224 6.994 24.23 0 15.612 0z" transform="translate(-89 -961) translate(89.3 961)"/>
                <path fill="#647686" d="M21.745 12.488c.069 2.09-.528 3.767-1.31 5.076-.757 1.287-1.791 2.32-3.031 3.055-1.24.759-2.895 1.31-4.847 1.24-1.815-.045-3.262-.573-4.434-1.285-.068-.046-.16-.092-.206-.161 2.021.23 3.56-.437 4.663-1.287-.804-.023-1.424-.298-1.884-.689-.46-.367-.85-.873-1.056-1.516.413.092 1.01.07 1.378-.046-.758-.16-1.31-.574-1.746-1.08-.436-.482-.735-1.148-.735-2.067.023-.046.092.023.138.046.344.161.78.299 1.263.322-.78-.551-1.562-1.608-1.332-3.101.069-.437.207-.804.39-1.126.207.207.39.437.598.643 1.424 1.425 3.261 2.458 5.926 2.665-.368-1.63.482-2.848 1.516-3.446.574-.321 1.378-.482 2.159-.321.712.138 1.263.505 1.677.919.781-.138 1.401-.437 1.998-.758-.275.758-.712 1.355-1.378 1.722.644-.046 1.263-.275 1.792-.482-.39.666-.942 1.195-1.539 1.677" transform="translate(-89 -961) translate(89.3 961)"/>
            </g>
        </g>
    </g>
</svg>
