<svg xmlns:xlink="http://www.w3.org/1999/xlink" xmlns="http://www.w3.org/2000/svg" xmlns:vectornator="http://vectornator.io" style="fill-rule:nonzero;clip-rule:evenodd;stroke-linecap:round;stroke-linejoin:round;" xml:space="preserve" version="1.1" viewBox="0 0 337.95 100">
<metadata>
<vectornator:setting key="DimensionsVisible" value="1"/>
<vectornator:setting key="PencilOnly" value="0"/>
<vectornator:setting key="SnapToPoints" value="0"/>
<vectornator:setting key="GuidesVisible" value="1"/>
<vectornator:setting key="OutlineMode" value="0"/>
<vectornator:setting key="RulersVisible" value="1"/>
<vectornator:setting key="SnapToEdges" value="0"/>
<vectornator:setting key="CMYKEnabledKey" value="0"/>
<vectornator:setting key="DisplayWhiteBackground" value="0"/>
<vectornator:setting key="doHistoryDisabled" value="0"/>
<vectornator:setting key="TimeLapseWatermarkDisabled" value="0"/>
<vectornator:setting key="SnapToGuides" value="1"/>
<vectornator:setting key="DynamicGuides" value="0"/>
<vectornator:setting key="SnapToGrid" value="0"/>
<vectornator:setting key="IsolateActiveLayer" value="0"/>
<vectornator:setting key="Units" value="Points"/>
</metadata>
<defs>
<path d="M63.2964+26.3652L79.4012+26.3652L79.4012+58.7057L63.2964+58.7057L63.2964+26.3652Z" id="Mask"/>
<path d="M17.1935+26.3652L64.4023+26.3652L64.4023+90.1928L17.1935+90.1928L17.1935+26.3652Z" id="Mask_2"/>
</defs>
<g id="Untitled" vectornator:layerName="Untitled">
<path d="M48.7294+0C21.8181+0+0+22.387+0+50C0+77.6152+21.8181+100+48.7294+100C75.6429+100+97.4588+77.6152+97.4588+50C97.4588+22.387+75.6429+0+48.7294+0Z" opacity="1" fill="#f7f8ef"/>
<path d="M48.5587+9.82491C27.0301+9.82491+9.57524+27.7349+9.57524+49.8249C9.57524+71.9171+27.0301+89.8249+48.5587+89.8249C70.0895+89.8249+87.5422+71.9171+87.5422+49.8249C87.5422+27.7349+70.0895+9.82491+48.5587+9.82491Z" opacity="1" fill="#021123"/>
<path d="M41.7353+58.3333L41.4545+58.1893L56.9633+26.3652L57.3132+26.3652L41.7353+58.3333" opacity="1" fill="#f7f8ef"/>
<path d="M46.159+58.3245L45.8804+58.1804L61.3826+26.3652L61.7325+26.3652L46.159+58.3245" opacity="1" fill="#f7f8ef"/>
<path d="M43.2106+58.3311L42.9298+58.1871L58.4364+26.3652L58.7863+26.3652L43.2106+58.3311" opacity="1" fill="#f7f8ef"/>
<path d="M44.6859+58.3267L44.4051+58.1826L59.9095+26.3652L60.2594+26.3652L44.6859+58.3267" opacity="1" fill="#f7f8ef"/>
<path d="M40.2622+58.3378L39.9814+58.1937L55.4901+26.3652L55.8422+26.3652L40.2622+58.3378" opacity="1" fill="#f7f8ef"/>
<g opacity="1" vectornator:mask="#Mask">
<clipPath id="ClipPath">
<use xlink:href="#Mask" fill="none" overflow="visible"/>
</clipPath>
<g clip-path="url(#ClipPath)">
<path d="M79.0556+26.3652L79.4077+26.3652L63.8536+58.2824L63.575+58.1383L79.0556+26.3652" opacity="1" fill="#f7f8ef"/>
</g>
</g>
<path d="M34.3633+58.3511L34.0825+58.207L49.5977+26.3652L49.9498+26.3652L34.3633+58.3511" opacity="1" fill="#f7f8ef"/>
<path d="M37.3117+58.3444L37.033+58.2004L52.5439+26.3652L52.896+26.3652L37.3117+58.3444" opacity="1" fill="#f7f8ef"/>
<path d="M35.8386+58.3466L35.5578+58.2048L51.0708+26.3652L51.4229+26.3652L35.8386+58.3466" opacity="1" fill="#f7f8ef"/>
<path d="M38.7869+58.34L38.5061+58.1981L54.017+26.3652L54.3691+26.3652L38.7869+58.34" opacity="1" fill="#f7f8ef"/>
<path d="M55.0063+58.3023L54.7277+58.1582L70.2191+26.3652L70.569+26.3652L55.0063+58.3023" opacity="1" fill="#f7f8ef"/>
<path d="M56.4816+58.3001L56.2008+58.156L71.6922+26.3652L72.0422+26.3652L56.4816+58.3001" opacity="1" fill="#f7f8ef"/>
<path d="M57.9569+58.2957L57.6761+58.1516L73.1654+26.3652L73.5153+26.3652L57.9569+58.2957" opacity="1" fill="#f7f8ef"/>
<path d="M47.6343+58.32L47.3535+58.176L62.8557+26.3652L63.2056+26.3652L47.6343+58.32" opacity="1" fill="#f7f8ef"/>
<path d="M62.3805+58.2868L62.0997+58.1427L77.5847+26.3652L77.9346+26.3652L62.3805+58.2868" opacity="1" fill="#f7f8ef"/>
<path d="M60.9052+58.289L60.6244+58.1449L76.1116+26.3652L76.4615+26.3652L60.9052+58.289" opacity="1" fill="#f7f8ef"/>
<path d="M59.43+58.2934L59.1492+58.1494L74.6385+26.3652L74.9884+26.3652L59.43+58.2934" opacity="1" fill="#f7f8ef"/>
<path d="M50.5827+58.3134L50.304+58.1693L65.7998+26.3652L66.1519+26.3652L50.5827+58.3134" opacity="1" fill="#f7f8ef"/>
<path d="M49.1095+58.3178L48.8287+58.1738L64.3267+26.3652L64.6787+26.3652L49.1095+58.3178" opacity="1" fill="#f7f8ef"/>
<path d="M53.5332+58.3067L53.2524+58.1627L68.746+26.3652L69.0959+26.3652L53.5332+58.3067" opacity="1" fill="#f7f8ef"/>
<path d="M52.0579+58.309L51.7771+58.1671L67.2729+26.3652L67.625+26.3652L52.0579+58.309" opacity="1" fill="#f7f8ef"/>
<g opacity="1" vectornator:mask="#Mask_2">
<clipPath id="ClipPath_2">
<use xlink:href="#Mask_2" fill="none" overflow="visible"/>
</clipPath>
<g clip-path="url(#ClipPath_2)">
<path d="M48.3017+90.1995L17.1957+26.3652L48.3017+26.3652L63.8536+58.2824L48.3017+90.1995" opacity="1" fill="#f7f8ef"/>
</g>
</g>
<g opacity="1">
<path d="M162.3+26.0763L175.112+26.0763L154.973+85.0939L143.321+85.0939L123.382+26.0763L136.555+26.0763L149.367+70.88L162.3+26.0763Z" opacity="1" fill="#ffffff"/>
<path d="M198.735+49.6994C196.093+49.6994+194.044+50.5268+192.589+52.1818C191.135+53.8367+190.22+56.0789+189.847+58.9084L207.584+58.9084C207.397+55.8921+206.483+53.6032+204.841+52.0417C203.2+50.4801+201.164+49.6994+198.735+49.6994ZM198.735+40.2902C202.366+40.2902+205.635+40.9709+208.545+42.3322C211.454+43.6935+213.857+45.8423+215.752+48.7785C217.46+51.3677+218.568+54.3706+219.075+57.7873C219.369+59.7892+219.489+62.672+219.436+66.4357L189.566+66.4357C189.727+70.8133+191.101+73.883+193.69+75.6447C195.265+76.7391+197.16+77.2863+199.376+77.2863C201.725+77.2863+203.633+76.619+205.102+75.2843C205.902+74.5636+206.61+73.5626+207.224+72.2814L218.875+72.2814C218.581+74.8706+217.233+77.4998+214.831+80.1691C211.094+84.4132+205.862+86.5353+199.136+86.5353C193.584+86.5353+188.686+84.7469+184.441+81.1701C180.197+77.5932+178.075+71.7742+178.075+63.713C178.075+56.159+179.99+50.3667+183.821+46.3361C187.651+42.3055+192.623+40.2902+198.735+40.2902Z" opacity="1" fill="#ffffff"/>
<path d="M236.012+71.1603C236.252+73.189+236.772+74.6304+237.573+75.4845C238.988+77.006+241.604+77.7668+245.421+77.7668C247.663+77.7668+249.445+77.4331+250.766+76.7658C252.087+76.0985+252.748+75.0975+252.748+73.7628C252.748+72.4816+252.214+71.5073+251.146+70.84C250.079+70.1727+246.115+69.0249+239.255+67.3966C234.317+66.1688+230.833+64.6339+228.805+62.7921C226.776+60.977+225.762+58.3612+225.762+54.9445C225.762+50.9139+227.343+47.4505+230.506+44.5543C233.669+41.6582+238.12+40.2101+243.859+40.2101C249.305+40.2101+253.742+41.2978+257.172+43.4733C260.602+45.6487+262.571+49.4057+263.078+54.7443L251.667+54.7443C251.507+53.2762+251.093+52.1151+250.426+51.2609C249.171+49.7127+247.036+48.9386+244.02+48.9386C241.537+48.9386+239.769+49.3257+238.714+50.0998C237.66+50.8738+237.133+51.7814+237.133+52.8224C237.133+54.1304+237.693+55.0779+238.814+55.6652C239.936+56.2791+243.899+57.3335+250.706+58.8283C255.244+59.896+258.647+61.5109+260.916+63.673C263.158+65.8618+264.279+68.5978+264.279+71.881C264.279+76.2052+262.671+79.7353+259.455+82.4713C256.238+85.2073+251.267+86.5753+244.54+86.5753C237.68+86.5753+232.615+85.1273+229.345+82.2311C226.075+79.3349+224.44+75.6447+224.44+71.1603L236.012+71.1603Z" opacity="1" fill="#ffffff"/>
<path d="M268.243+49.9796L268.243+41.8517L274.329+41.8517L274.329+29.6798L285.62+29.6798L285.62+41.8517L292.707+41.8517L292.707+49.9796L285.62+49.9796L285.62+73.0421C285.62+74.8306+285.847+75.945+286.301+76.3854C286.755+76.8258+288.143+77.046+290.465+77.046C290.812+77.046+291.179+77.0394+291.566+77.026C291.953+77.0127+292.333+76.9927+292.707+76.966L292.707+85.4943L287.302+85.6945C281.91+85.8813+278.226+84.9471+276.251+82.8918C274.97+81.5838+274.329+79.5685+274.329+76.8459L274.329+49.9796L268.243+49.9796Z" opacity="1" fill="#ffffff"/>
<path d="M324.098+63.8732C323.377+64.327+322.65+64.694+321.916+64.9743C321.181+65.2545+320.174+65.5148+318.893+65.755L316.33+66.2355C313.928+66.6626+312.206+67.1831+311.165+67.797C309.403+68.838+308.522+70.4529+308.522+72.6418C308.522+74.5903+309.063+75.9984+310.144+76.8659C311.225+77.7334+312.54+78.1671+314.088+78.1671C316.544+78.1671+318.806+77.4464+320.875+76.005C322.943+74.5636+324.018+71.9344+324.098+68.1173L324.098+63.8732ZM317.171+58.548C319.28+58.2811+320.788+57.9474+321.695+57.547C323.324+56.853+324.138+55.772+324.138+54.3039C324.138+52.5154+323.517+51.2809+322.276+50.6002C321.035+49.9196+319.213+49.5793+316.811+49.5793C314.115+49.5793+312.206+50.2466+311.085+51.5812C310.284+52.5688+309.75+53.9035+309.483+55.5851L298.473+55.5851C298.713+51.7681+299.781+48.6317+301.676+46.1759C304.692+42.3322+309.87+40.4103+317.211+40.4103C321.989+40.4103+326.233+41.3579+329.943+43.2531C333.654+45.1483+335.509+48.7251+335.509+53.9835L335.509+74.0031C335.509+75.3911+335.535+77.0727+335.589+79.048C335.669+80.5428+335.896+81.5571+336.27+82.091C336.643+82.6248+337.204+83.0653+337.951+83.4123L337.951+85.0939L325.539+85.0939C325.192+84.213+324.952+83.3856+324.818+82.6115C324.685+81.8374+324.578+80.9565+324.498+79.9689C322.923+81.6772+321.108+83.132+319.053+84.3332C316.597+85.7479+313.821+86.4552+310.725+86.4552C306.774+86.4552+303.511+85.3275+300.935+83.0719C298.359+80.8164+297.071+77.6199+297.071+73.4826C297.071+68.1173+299.14+64.2335+303.277+61.8312C305.546+60.5233+308.883+59.589+313.287+59.0285L317.171+58.548Z" opacity="1" fill="#ffffff"/>
</g>
<g opacity="1"/>
</g>
</svg>